G04 #@! TF.GenerationSoftware,KiCad,Pcbnew,(5.1.5)-3*
G04 #@! TF.CreationDate,2020-04-05T16:27:11-07:00*
G04 #@! TF.ProjectId,adsr-1x2,61647372-2d31-4783-922e-6b696361645f,rev?*
G04 #@! TF.SameCoordinates,Original*
G04 #@! TF.FileFunction,Soldermask,Top*
G04 #@! TF.FilePolarity,Negative*
%FSLAX46Y46*%
G04 Gerber Fmt 4.6, Leading zero omitted, Abs format (unit mm)*
G04 Created by KiCad (PCBNEW (5.1.5)-3) date 2020-04-05 16:27:11*
%MOMM*%
%LPD*%
G04 APERTURE LIST*
%ADD10C,0.100000*%
G04 APERTURE END LIST*
D10*
G36*
X30847465Y-122378439D02*
G01*
X31079227Y-122474438D01*
X31079228Y-122474439D01*
X31287809Y-122613808D01*
X31465192Y-122791191D01*
X31465193Y-122791193D01*
X31604562Y-122999773D01*
X31700561Y-123231535D01*
X31749500Y-123477570D01*
X31749500Y-123728430D01*
X31700561Y-123974465D01*
X31604562Y-124206227D01*
X31604561Y-124206228D01*
X31465192Y-124414809D01*
X31287809Y-124592192D01*
X31182810Y-124662350D01*
X31079227Y-124731562D01*
X30847465Y-124827561D01*
X30601430Y-124876500D01*
X30350570Y-124876500D01*
X30104535Y-124827561D01*
X29872773Y-124731562D01*
X29769190Y-124662350D01*
X29664191Y-124592192D01*
X29486808Y-124414809D01*
X29347439Y-124206228D01*
X29347438Y-124206227D01*
X29251439Y-123974465D01*
X29202500Y-123728430D01*
X29202500Y-123477570D01*
X29251439Y-123231535D01*
X29347438Y-122999773D01*
X29486807Y-122791193D01*
X29486808Y-122791191D01*
X29664191Y-122613808D01*
X29872772Y-122474439D01*
X29872773Y-122474438D01*
X30104535Y-122378439D01*
X30350570Y-122329500D01*
X30601430Y-122329500D01*
X30847465Y-122378439D01*
G37*
G36*
X18789465Y-122378439D02*
G01*
X19021227Y-122474438D01*
X19021228Y-122474439D01*
X19229809Y-122613808D01*
X19407192Y-122791191D01*
X19407193Y-122791193D01*
X19546562Y-122999773D01*
X19642561Y-123231535D01*
X19691500Y-123477570D01*
X19691500Y-123728430D01*
X19642561Y-123974465D01*
X19546562Y-124206227D01*
X19546561Y-124206228D01*
X19407192Y-124414809D01*
X19229809Y-124592192D01*
X19124810Y-124662350D01*
X19021227Y-124731562D01*
X18789465Y-124827561D01*
X18543430Y-124876500D01*
X18292570Y-124876500D01*
X18046535Y-124827561D01*
X17814773Y-124731562D01*
X17711190Y-124662350D01*
X17606191Y-124592192D01*
X17428808Y-124414809D01*
X17289439Y-124206228D01*
X17289438Y-124206227D01*
X17193439Y-123974465D01*
X17144500Y-123728430D01*
X17144500Y-123477570D01*
X17193439Y-123231535D01*
X17289438Y-122999773D01*
X17428807Y-122791193D01*
X17428808Y-122791191D01*
X17606191Y-122613808D01*
X17814772Y-122474439D01*
X17814773Y-122474438D01*
X18046535Y-122378439D01*
X18292570Y-122329500D01*
X18543430Y-122329500D01*
X18789465Y-122378439D01*
G37*
G36*
X6731465Y-122378439D02*
G01*
X6963227Y-122474438D01*
X6963228Y-122474439D01*
X7171809Y-122613808D01*
X7349192Y-122791191D01*
X7349193Y-122791193D01*
X7488562Y-122999773D01*
X7584561Y-123231535D01*
X7633500Y-123477570D01*
X7633500Y-123728430D01*
X7584561Y-123974465D01*
X7488562Y-124206227D01*
X7488561Y-124206228D01*
X7349192Y-124414809D01*
X7171809Y-124592192D01*
X7066810Y-124662350D01*
X6963227Y-124731562D01*
X6731465Y-124827561D01*
X6485430Y-124876500D01*
X6234570Y-124876500D01*
X5988535Y-124827561D01*
X5756773Y-124731562D01*
X5653190Y-124662350D01*
X5548191Y-124592192D01*
X5370808Y-124414809D01*
X5231439Y-124206228D01*
X5231438Y-124206227D01*
X5135439Y-123974465D01*
X5086500Y-123728430D01*
X5086500Y-123477570D01*
X5135439Y-123231535D01*
X5231438Y-122999773D01*
X5370807Y-122791193D01*
X5370808Y-122791191D01*
X5548191Y-122613808D01*
X5756772Y-122474439D01*
X5756773Y-122474438D01*
X5988535Y-122378439D01*
X6234570Y-122329500D01*
X6485430Y-122329500D01*
X6731465Y-122378439D01*
G37*
G36*
X54963465Y-122378439D02*
G01*
X55195227Y-122474438D01*
X55195228Y-122474439D01*
X55403809Y-122613808D01*
X55581192Y-122791191D01*
X55581193Y-122791193D01*
X55720562Y-122999773D01*
X55816561Y-123231535D01*
X55865500Y-123477570D01*
X55865500Y-123728430D01*
X55816561Y-123974465D01*
X55720562Y-124206227D01*
X55720561Y-124206228D01*
X55581192Y-124414809D01*
X55403809Y-124592192D01*
X55298810Y-124662350D01*
X55195227Y-124731562D01*
X54963465Y-124827561D01*
X54717430Y-124876500D01*
X54466570Y-124876500D01*
X54220535Y-124827561D01*
X53988773Y-124731562D01*
X53885190Y-124662350D01*
X53780191Y-124592192D01*
X53602808Y-124414809D01*
X53463439Y-124206228D01*
X53463438Y-124206227D01*
X53367439Y-123974465D01*
X53318500Y-123728430D01*
X53318500Y-123477570D01*
X53367439Y-123231535D01*
X53463438Y-122999773D01*
X53602807Y-122791193D01*
X53602808Y-122791191D01*
X53780191Y-122613808D01*
X53988772Y-122474439D01*
X53988773Y-122474438D01*
X54220535Y-122378439D01*
X54466570Y-122329500D01*
X54717430Y-122329500D01*
X54963465Y-122378439D01*
G37*
G36*
X42905465Y-122378439D02*
G01*
X43137227Y-122474438D01*
X43137228Y-122474439D01*
X43345809Y-122613808D01*
X43523192Y-122791191D01*
X43523193Y-122791193D01*
X43662562Y-122999773D01*
X43758561Y-123231535D01*
X43807500Y-123477570D01*
X43807500Y-123728430D01*
X43758561Y-123974465D01*
X43662562Y-124206227D01*
X43662561Y-124206228D01*
X43523192Y-124414809D01*
X43345809Y-124592192D01*
X43240810Y-124662350D01*
X43137227Y-124731562D01*
X42905465Y-124827561D01*
X42659430Y-124876500D01*
X42408570Y-124876500D01*
X42162535Y-124827561D01*
X41930773Y-124731562D01*
X41827190Y-124662350D01*
X41722191Y-124592192D01*
X41544808Y-124414809D01*
X41405439Y-124206228D01*
X41405438Y-124206227D01*
X41309439Y-123974465D01*
X41260500Y-123728430D01*
X41260500Y-123477570D01*
X41309439Y-123231535D01*
X41405438Y-122999773D01*
X41544807Y-122791193D01*
X41544808Y-122791191D01*
X41722191Y-122613808D01*
X41930772Y-122474439D01*
X41930773Y-122474438D01*
X42162535Y-122378439D01*
X42408570Y-122329500D01*
X42659430Y-122329500D01*
X42905465Y-122378439D01*
G37*
G36*
X42810248Y-119114208D02*
G01*
X42947032Y-119141416D01*
X43204727Y-119248157D01*
X43436647Y-119403121D01*
X43633879Y-119600353D01*
X43788843Y-119832273D01*
X43895584Y-120089968D01*
X43950000Y-120363536D01*
X43950000Y-120642464D01*
X43895584Y-120916032D01*
X43788843Y-121173727D01*
X43633879Y-121405647D01*
X43436647Y-121602879D01*
X43204727Y-121757843D01*
X42947032Y-121864584D01*
X42810248Y-121891792D01*
X42673465Y-121919000D01*
X42394535Y-121919000D01*
X42257752Y-121891792D01*
X42120968Y-121864584D01*
X41863273Y-121757843D01*
X41631353Y-121602879D01*
X41434121Y-121405647D01*
X41279157Y-121173727D01*
X41172416Y-120916032D01*
X41118000Y-120642464D01*
X41118000Y-120363536D01*
X41172416Y-120089968D01*
X41279157Y-119832273D01*
X41434121Y-119600353D01*
X41631353Y-119403121D01*
X41863273Y-119248157D01*
X42120968Y-119141416D01*
X42257752Y-119114208D01*
X42394535Y-119087000D01*
X42673465Y-119087000D01*
X42810248Y-119114208D01*
G37*
G36*
X30752248Y-119114208D02*
G01*
X30889032Y-119141416D01*
X31146727Y-119248157D01*
X31378647Y-119403121D01*
X31575879Y-119600353D01*
X31730843Y-119832273D01*
X31837584Y-120089968D01*
X31892000Y-120363536D01*
X31892000Y-120642464D01*
X31837584Y-120916032D01*
X31730843Y-121173727D01*
X31575879Y-121405647D01*
X31378647Y-121602879D01*
X31146727Y-121757843D01*
X30889032Y-121864584D01*
X30752248Y-121891792D01*
X30615465Y-121919000D01*
X30336535Y-121919000D01*
X30199752Y-121891792D01*
X30062968Y-121864584D01*
X29805273Y-121757843D01*
X29573353Y-121602879D01*
X29376121Y-121405647D01*
X29221157Y-121173727D01*
X29114416Y-120916032D01*
X29060000Y-120642464D01*
X29060000Y-120363536D01*
X29114416Y-120089968D01*
X29221157Y-119832273D01*
X29376121Y-119600353D01*
X29573353Y-119403121D01*
X29805273Y-119248157D01*
X30062968Y-119141416D01*
X30199752Y-119114208D01*
X30336535Y-119087000D01*
X30615465Y-119087000D01*
X30752248Y-119114208D01*
G37*
G36*
X54868248Y-119114208D02*
G01*
X55005032Y-119141416D01*
X55262727Y-119248157D01*
X55494647Y-119403121D01*
X55691879Y-119600353D01*
X55846843Y-119832273D01*
X55953584Y-120089968D01*
X56008000Y-120363536D01*
X56008000Y-120642464D01*
X55953584Y-120916032D01*
X55846843Y-121173727D01*
X55691879Y-121405647D01*
X55494647Y-121602879D01*
X55262727Y-121757843D01*
X55005032Y-121864584D01*
X54868248Y-121891792D01*
X54731465Y-121919000D01*
X54452535Y-121919000D01*
X54315752Y-121891792D01*
X54178968Y-121864584D01*
X53921273Y-121757843D01*
X53689353Y-121602879D01*
X53492121Y-121405647D01*
X53337157Y-121173727D01*
X53230416Y-120916032D01*
X53176000Y-120642464D01*
X53176000Y-120363536D01*
X53230416Y-120089968D01*
X53337157Y-119832273D01*
X53492121Y-119600353D01*
X53689353Y-119403121D01*
X53921273Y-119248157D01*
X54178968Y-119141416D01*
X54315752Y-119114208D01*
X54452535Y-119087000D01*
X54731465Y-119087000D01*
X54868248Y-119114208D01*
G37*
G36*
X18694248Y-119114208D02*
G01*
X18831032Y-119141416D01*
X19088727Y-119248157D01*
X19320647Y-119403121D01*
X19517879Y-119600353D01*
X19672843Y-119832273D01*
X19779584Y-120089968D01*
X19834000Y-120363536D01*
X19834000Y-120642464D01*
X19779584Y-120916032D01*
X19672843Y-121173727D01*
X19517879Y-121405647D01*
X19320647Y-121602879D01*
X19088727Y-121757843D01*
X18831032Y-121864584D01*
X18694248Y-121891792D01*
X18557465Y-121919000D01*
X18278535Y-121919000D01*
X18141752Y-121891792D01*
X18004968Y-121864584D01*
X17747273Y-121757843D01*
X17515353Y-121602879D01*
X17318121Y-121405647D01*
X17163157Y-121173727D01*
X17056416Y-120916032D01*
X17002000Y-120642464D01*
X17002000Y-120363536D01*
X17056416Y-120089968D01*
X17163157Y-119832273D01*
X17318121Y-119600353D01*
X17515353Y-119403121D01*
X17747273Y-119248157D01*
X18004968Y-119141416D01*
X18141752Y-119114208D01*
X18278535Y-119087000D01*
X18557465Y-119087000D01*
X18694248Y-119114208D01*
G37*
G36*
X6636248Y-119114208D02*
G01*
X6773032Y-119141416D01*
X7030727Y-119248157D01*
X7262647Y-119403121D01*
X7459879Y-119600353D01*
X7614843Y-119832273D01*
X7721584Y-120089968D01*
X7776000Y-120363536D01*
X7776000Y-120642464D01*
X7721584Y-120916032D01*
X7614843Y-121173727D01*
X7459879Y-121405647D01*
X7262647Y-121602879D01*
X7030727Y-121757843D01*
X6773032Y-121864584D01*
X6636248Y-121891792D01*
X6499465Y-121919000D01*
X6220535Y-121919000D01*
X6083752Y-121891792D01*
X5946968Y-121864584D01*
X5689273Y-121757843D01*
X5457353Y-121602879D01*
X5260121Y-121405647D01*
X5105157Y-121173727D01*
X4998416Y-120916032D01*
X4944000Y-120642464D01*
X4944000Y-120363536D01*
X4998416Y-120089968D01*
X5105157Y-119832273D01*
X5260121Y-119600353D01*
X5457353Y-119403121D01*
X5689273Y-119248157D01*
X5946968Y-119141416D01*
X6083752Y-119114208D01*
X6220535Y-119087000D01*
X6499465Y-119087000D01*
X6636248Y-119114208D01*
G37*
G36*
X42836585Y-115601802D02*
G01*
X42986410Y-115631604D01*
X43268674Y-115748521D01*
X43522705Y-115918259D01*
X43738741Y-116134295D01*
X43908479Y-116388326D01*
X44025396Y-116670590D01*
X44085000Y-116970240D01*
X44085000Y-117275760D01*
X44025396Y-117575410D01*
X43908479Y-117857674D01*
X43738741Y-118111705D01*
X43522705Y-118327741D01*
X43268674Y-118497479D01*
X42986410Y-118614396D01*
X42836585Y-118644198D01*
X42686761Y-118674000D01*
X42381239Y-118674000D01*
X42231415Y-118644198D01*
X42081590Y-118614396D01*
X41799326Y-118497479D01*
X41545295Y-118327741D01*
X41329259Y-118111705D01*
X41159521Y-117857674D01*
X41042604Y-117575410D01*
X40983000Y-117275760D01*
X40983000Y-116970240D01*
X41042604Y-116670590D01*
X41159521Y-116388326D01*
X41329259Y-116134295D01*
X41545295Y-115918259D01*
X41799326Y-115748521D01*
X42081590Y-115631604D01*
X42231415Y-115601802D01*
X42381239Y-115572000D01*
X42686761Y-115572000D01*
X42836585Y-115601802D01*
G37*
G36*
X54894585Y-115601802D02*
G01*
X55044410Y-115631604D01*
X55326674Y-115748521D01*
X55580705Y-115918259D01*
X55796741Y-116134295D01*
X55966479Y-116388326D01*
X56083396Y-116670590D01*
X56143000Y-116970240D01*
X56143000Y-117275760D01*
X56083396Y-117575410D01*
X55966479Y-117857674D01*
X55796741Y-118111705D01*
X55580705Y-118327741D01*
X55326674Y-118497479D01*
X55044410Y-118614396D01*
X54894585Y-118644198D01*
X54744761Y-118674000D01*
X54439239Y-118674000D01*
X54289415Y-118644198D01*
X54139590Y-118614396D01*
X53857326Y-118497479D01*
X53603295Y-118327741D01*
X53387259Y-118111705D01*
X53217521Y-117857674D01*
X53100604Y-117575410D01*
X53041000Y-117275760D01*
X53041000Y-116970240D01*
X53100604Y-116670590D01*
X53217521Y-116388326D01*
X53387259Y-116134295D01*
X53603295Y-115918259D01*
X53857326Y-115748521D01*
X54139590Y-115631604D01*
X54289415Y-115601802D01*
X54439239Y-115572000D01*
X54744761Y-115572000D01*
X54894585Y-115601802D01*
G37*
G36*
X18720585Y-115601802D02*
G01*
X18870410Y-115631604D01*
X19152674Y-115748521D01*
X19406705Y-115918259D01*
X19622741Y-116134295D01*
X19792479Y-116388326D01*
X19909396Y-116670590D01*
X19969000Y-116970240D01*
X19969000Y-117275760D01*
X19909396Y-117575410D01*
X19792479Y-117857674D01*
X19622741Y-118111705D01*
X19406705Y-118327741D01*
X19152674Y-118497479D01*
X18870410Y-118614396D01*
X18720585Y-118644198D01*
X18570761Y-118674000D01*
X18265239Y-118674000D01*
X18115415Y-118644198D01*
X17965590Y-118614396D01*
X17683326Y-118497479D01*
X17429295Y-118327741D01*
X17213259Y-118111705D01*
X17043521Y-117857674D01*
X16926604Y-117575410D01*
X16867000Y-117275760D01*
X16867000Y-116970240D01*
X16926604Y-116670590D01*
X17043521Y-116388326D01*
X17213259Y-116134295D01*
X17429295Y-115918259D01*
X17683326Y-115748521D01*
X17965590Y-115631604D01*
X18115415Y-115601802D01*
X18265239Y-115572000D01*
X18570761Y-115572000D01*
X18720585Y-115601802D01*
G37*
G36*
X6662585Y-115601802D02*
G01*
X6812410Y-115631604D01*
X7094674Y-115748521D01*
X7348705Y-115918259D01*
X7564741Y-116134295D01*
X7734479Y-116388326D01*
X7851396Y-116670590D01*
X7911000Y-116970240D01*
X7911000Y-117275760D01*
X7851396Y-117575410D01*
X7734479Y-117857674D01*
X7564741Y-118111705D01*
X7348705Y-118327741D01*
X7094674Y-118497479D01*
X6812410Y-118614396D01*
X6662585Y-118644198D01*
X6512761Y-118674000D01*
X6207239Y-118674000D01*
X6057415Y-118644198D01*
X5907590Y-118614396D01*
X5625326Y-118497479D01*
X5371295Y-118327741D01*
X5155259Y-118111705D01*
X4985521Y-117857674D01*
X4868604Y-117575410D01*
X4809000Y-117275760D01*
X4809000Y-116970240D01*
X4868604Y-116670590D01*
X4985521Y-116388326D01*
X5155259Y-116134295D01*
X5371295Y-115918259D01*
X5625326Y-115748521D01*
X5907590Y-115631604D01*
X6057415Y-115601802D01*
X6207239Y-115572000D01*
X6512761Y-115572000D01*
X6662585Y-115601802D01*
G37*
G36*
X30778585Y-115601802D02*
G01*
X30928410Y-115631604D01*
X31210674Y-115748521D01*
X31464705Y-115918259D01*
X31680741Y-116134295D01*
X31850479Y-116388326D01*
X31967396Y-116670590D01*
X32027000Y-116970240D01*
X32027000Y-117275760D01*
X31967396Y-117575410D01*
X31850479Y-117857674D01*
X31680741Y-118111705D01*
X31464705Y-118327741D01*
X31210674Y-118497479D01*
X30928410Y-118614396D01*
X30778585Y-118644198D01*
X30628761Y-118674000D01*
X30323239Y-118674000D01*
X30173415Y-118644198D01*
X30023590Y-118614396D01*
X29741326Y-118497479D01*
X29487295Y-118327741D01*
X29271259Y-118111705D01*
X29101521Y-117857674D01*
X28984604Y-117575410D01*
X28925000Y-117275760D01*
X28925000Y-116970240D01*
X28984604Y-116670590D01*
X29101521Y-116388326D01*
X29271259Y-116134295D01*
X29487295Y-115918259D01*
X29741326Y-115748521D01*
X30023590Y-115631604D01*
X30173415Y-115601802D01*
X30323239Y-115572000D01*
X30628761Y-115572000D01*
X30778585Y-115601802D01*
G37*
G36*
X30746395Y-110843632D02*
G01*
X30880281Y-110870263D01*
X31006399Y-110922503D01*
X31132518Y-110974743D01*
X31359521Y-111126421D01*
X31552579Y-111319479D01*
X31704257Y-111546482D01*
X31808737Y-111798720D01*
X31862000Y-112066490D01*
X31862000Y-112339510D01*
X31808737Y-112607280D01*
X31704257Y-112859518D01*
X31552579Y-113086521D01*
X31359521Y-113279579D01*
X31132518Y-113431257D01*
X31006399Y-113483497D01*
X30880281Y-113535737D01*
X30746395Y-113562368D01*
X30612510Y-113589000D01*
X30339490Y-113589000D01*
X30205605Y-113562368D01*
X30071719Y-113535737D01*
X29945601Y-113483497D01*
X29819482Y-113431257D01*
X29592479Y-113279579D01*
X29399421Y-113086521D01*
X29247743Y-112859518D01*
X29143263Y-112607280D01*
X29090000Y-112339510D01*
X29090000Y-112066490D01*
X29143263Y-111798720D01*
X29247743Y-111546482D01*
X29399421Y-111319479D01*
X29592479Y-111126421D01*
X29819482Y-110974743D01*
X29945601Y-110922503D01*
X30071719Y-110870263D01*
X30205605Y-110843632D01*
X30339490Y-110817000D01*
X30612510Y-110817000D01*
X30746395Y-110843632D01*
G37*
G36*
X18688395Y-110843632D02*
G01*
X18822281Y-110870263D01*
X18948399Y-110922503D01*
X19074518Y-110974743D01*
X19301521Y-111126421D01*
X19494579Y-111319479D01*
X19646257Y-111546482D01*
X19750737Y-111798720D01*
X19804000Y-112066490D01*
X19804000Y-112339510D01*
X19750737Y-112607280D01*
X19646257Y-112859518D01*
X19494579Y-113086521D01*
X19301521Y-113279579D01*
X19074518Y-113431257D01*
X18948399Y-113483497D01*
X18822281Y-113535737D01*
X18688395Y-113562368D01*
X18554510Y-113589000D01*
X18281490Y-113589000D01*
X18147605Y-113562368D01*
X18013719Y-113535737D01*
X17887601Y-113483497D01*
X17761482Y-113431257D01*
X17534479Y-113279579D01*
X17341421Y-113086521D01*
X17189743Y-112859518D01*
X17085263Y-112607280D01*
X17032000Y-112339510D01*
X17032000Y-112066490D01*
X17085263Y-111798720D01*
X17189743Y-111546482D01*
X17341421Y-111319479D01*
X17534479Y-111126421D01*
X17761482Y-110974743D01*
X17887601Y-110922503D01*
X18013719Y-110870263D01*
X18147605Y-110843632D01*
X18281490Y-110817000D01*
X18554510Y-110817000D01*
X18688395Y-110843632D01*
G37*
G36*
X6630395Y-110843632D02*
G01*
X6764281Y-110870263D01*
X6890399Y-110922503D01*
X7016518Y-110974743D01*
X7243521Y-111126421D01*
X7436579Y-111319479D01*
X7588257Y-111546482D01*
X7692737Y-111798720D01*
X7746000Y-112066490D01*
X7746000Y-112339510D01*
X7692737Y-112607280D01*
X7588257Y-112859518D01*
X7436579Y-113086521D01*
X7243521Y-113279579D01*
X7016518Y-113431257D01*
X6890399Y-113483497D01*
X6764281Y-113535737D01*
X6630395Y-113562368D01*
X6496510Y-113589000D01*
X6223490Y-113589000D01*
X6089605Y-113562368D01*
X5955719Y-113535737D01*
X5829601Y-113483497D01*
X5703482Y-113431257D01*
X5476479Y-113279579D01*
X5283421Y-113086521D01*
X5131743Y-112859518D01*
X5027263Y-112607280D01*
X4974000Y-112339510D01*
X4974000Y-112066490D01*
X5027263Y-111798720D01*
X5131743Y-111546482D01*
X5283421Y-111319479D01*
X5476479Y-111126421D01*
X5703482Y-110974743D01*
X5829601Y-110922503D01*
X5955719Y-110870263D01*
X6089605Y-110843632D01*
X6223490Y-110817000D01*
X6496510Y-110817000D01*
X6630395Y-110843632D01*
G37*
G36*
X54862395Y-110843632D02*
G01*
X54996281Y-110870263D01*
X55122399Y-110922503D01*
X55248518Y-110974743D01*
X55475521Y-111126421D01*
X55668579Y-111319479D01*
X55820257Y-111546482D01*
X55924737Y-111798720D01*
X55978000Y-112066490D01*
X55978000Y-112339510D01*
X55924737Y-112607280D01*
X55820257Y-112859518D01*
X55668579Y-113086521D01*
X55475521Y-113279579D01*
X55248518Y-113431257D01*
X55122399Y-113483497D01*
X54996281Y-113535737D01*
X54862395Y-113562368D01*
X54728510Y-113589000D01*
X54455490Y-113589000D01*
X54321605Y-113562368D01*
X54187719Y-113535737D01*
X54061601Y-113483497D01*
X53935482Y-113431257D01*
X53708479Y-113279579D01*
X53515421Y-113086521D01*
X53363743Y-112859518D01*
X53259263Y-112607280D01*
X53206000Y-112339510D01*
X53206000Y-112066490D01*
X53259263Y-111798720D01*
X53363743Y-111546482D01*
X53515421Y-111319479D01*
X53708479Y-111126421D01*
X53935482Y-110974743D01*
X54061601Y-110922503D01*
X54187719Y-110870263D01*
X54321605Y-110843632D01*
X54455490Y-110817000D01*
X54728510Y-110817000D01*
X54862395Y-110843632D01*
G37*
G36*
X42804395Y-110843632D02*
G01*
X42938281Y-110870263D01*
X43064399Y-110922503D01*
X43190518Y-110974743D01*
X43417521Y-111126421D01*
X43610579Y-111319479D01*
X43762257Y-111546482D01*
X43866737Y-111798720D01*
X43920000Y-112066490D01*
X43920000Y-112339510D01*
X43866737Y-112607280D01*
X43762257Y-112859518D01*
X43610579Y-113086521D01*
X43417521Y-113279579D01*
X43190518Y-113431257D01*
X43064399Y-113483497D01*
X42938281Y-113535737D01*
X42804395Y-113562368D01*
X42670510Y-113589000D01*
X42397490Y-113589000D01*
X42263605Y-113562368D01*
X42129719Y-113535737D01*
X42003601Y-113483497D01*
X41877482Y-113431257D01*
X41650479Y-113279579D01*
X41457421Y-113086521D01*
X41305743Y-112859518D01*
X41201263Y-112607280D01*
X41148000Y-112339510D01*
X41148000Y-112066490D01*
X41201263Y-111798720D01*
X41305743Y-111546482D01*
X41457421Y-111319479D01*
X41650479Y-111126421D01*
X41877482Y-110974743D01*
X42003601Y-110922503D01*
X42129719Y-110870263D01*
X42263605Y-110843632D01*
X42397490Y-110817000D01*
X42670510Y-110817000D01*
X42804395Y-110843632D01*
G37*
G36*
X42895465Y-107377439D02*
G01*
X43127227Y-107473438D01*
X43127228Y-107473439D01*
X43335809Y-107612808D01*
X43513192Y-107790191D01*
X43513193Y-107790193D01*
X43652562Y-107998773D01*
X43748561Y-108230535D01*
X43797500Y-108476570D01*
X43797500Y-108727430D01*
X43748561Y-108973465D01*
X43652562Y-109205227D01*
X43652561Y-109205228D01*
X43513192Y-109413809D01*
X43335809Y-109591192D01*
X43230810Y-109661350D01*
X43127227Y-109730562D01*
X42895465Y-109826561D01*
X42649430Y-109875500D01*
X42398570Y-109875500D01*
X42152535Y-109826561D01*
X41920773Y-109730562D01*
X41817190Y-109661350D01*
X41712191Y-109591192D01*
X41534808Y-109413809D01*
X41395439Y-109205228D01*
X41395438Y-109205227D01*
X41299439Y-108973465D01*
X41250500Y-108727430D01*
X41250500Y-108476570D01*
X41299439Y-108230535D01*
X41395438Y-107998773D01*
X41534807Y-107790193D01*
X41534808Y-107790191D01*
X41712191Y-107612808D01*
X41920772Y-107473439D01*
X41920773Y-107473438D01*
X42152535Y-107377439D01*
X42398570Y-107328500D01*
X42649430Y-107328500D01*
X42895465Y-107377439D01*
G37*
G36*
X6721465Y-107377439D02*
G01*
X6953227Y-107473438D01*
X6953228Y-107473439D01*
X7161809Y-107612808D01*
X7339192Y-107790191D01*
X7339193Y-107790193D01*
X7478562Y-107998773D01*
X7574561Y-108230535D01*
X7623500Y-108476570D01*
X7623500Y-108727430D01*
X7574561Y-108973465D01*
X7478562Y-109205227D01*
X7478561Y-109205228D01*
X7339192Y-109413809D01*
X7161809Y-109591192D01*
X7056810Y-109661350D01*
X6953227Y-109730562D01*
X6721465Y-109826561D01*
X6475430Y-109875500D01*
X6224570Y-109875500D01*
X5978535Y-109826561D01*
X5746773Y-109730562D01*
X5643190Y-109661350D01*
X5538191Y-109591192D01*
X5360808Y-109413809D01*
X5221439Y-109205228D01*
X5221438Y-109205227D01*
X5125439Y-108973465D01*
X5076500Y-108727430D01*
X5076500Y-108476570D01*
X5125439Y-108230535D01*
X5221438Y-107998773D01*
X5360807Y-107790193D01*
X5360808Y-107790191D01*
X5538191Y-107612808D01*
X5746772Y-107473439D01*
X5746773Y-107473438D01*
X5978535Y-107377439D01*
X6224570Y-107328500D01*
X6475430Y-107328500D01*
X6721465Y-107377439D01*
G37*
G36*
X30837465Y-107377439D02*
G01*
X31069227Y-107473438D01*
X31069228Y-107473439D01*
X31277809Y-107612808D01*
X31455192Y-107790191D01*
X31455193Y-107790193D01*
X31594562Y-107998773D01*
X31690561Y-108230535D01*
X31739500Y-108476570D01*
X31739500Y-108727430D01*
X31690561Y-108973465D01*
X31594562Y-109205227D01*
X31594561Y-109205228D01*
X31455192Y-109413809D01*
X31277809Y-109591192D01*
X31172810Y-109661350D01*
X31069227Y-109730562D01*
X30837465Y-109826561D01*
X30591430Y-109875500D01*
X30340570Y-109875500D01*
X30094535Y-109826561D01*
X29862773Y-109730562D01*
X29759190Y-109661350D01*
X29654191Y-109591192D01*
X29476808Y-109413809D01*
X29337439Y-109205228D01*
X29337438Y-109205227D01*
X29241439Y-108973465D01*
X29192500Y-108727430D01*
X29192500Y-108476570D01*
X29241439Y-108230535D01*
X29337438Y-107998773D01*
X29476807Y-107790193D01*
X29476808Y-107790191D01*
X29654191Y-107612808D01*
X29862772Y-107473439D01*
X29862773Y-107473438D01*
X30094535Y-107377439D01*
X30340570Y-107328500D01*
X30591430Y-107328500D01*
X30837465Y-107377439D01*
G37*
G36*
X18779465Y-107377439D02*
G01*
X19011227Y-107473438D01*
X19011228Y-107473439D01*
X19219809Y-107612808D01*
X19397192Y-107790191D01*
X19397193Y-107790193D01*
X19536562Y-107998773D01*
X19632561Y-108230535D01*
X19681500Y-108476570D01*
X19681500Y-108727430D01*
X19632561Y-108973465D01*
X19536562Y-109205227D01*
X19536561Y-109205228D01*
X19397192Y-109413809D01*
X19219809Y-109591192D01*
X19114810Y-109661350D01*
X19011227Y-109730562D01*
X18779465Y-109826561D01*
X18533430Y-109875500D01*
X18282570Y-109875500D01*
X18036535Y-109826561D01*
X17804773Y-109730562D01*
X17701190Y-109661350D01*
X17596191Y-109591192D01*
X17418808Y-109413809D01*
X17279439Y-109205228D01*
X17279438Y-109205227D01*
X17183439Y-108973465D01*
X17134500Y-108727430D01*
X17134500Y-108476570D01*
X17183439Y-108230535D01*
X17279438Y-107998773D01*
X17418807Y-107790193D01*
X17418808Y-107790191D01*
X17596191Y-107612808D01*
X17804772Y-107473439D01*
X17804773Y-107473438D01*
X18036535Y-107377439D01*
X18282570Y-107328500D01*
X18533430Y-107328500D01*
X18779465Y-107377439D01*
G37*
G36*
X54953465Y-107377439D02*
G01*
X55185227Y-107473438D01*
X55185228Y-107473439D01*
X55393809Y-107612808D01*
X55571192Y-107790191D01*
X55571193Y-107790193D01*
X55710562Y-107998773D01*
X55806561Y-108230535D01*
X55855500Y-108476570D01*
X55855500Y-108727430D01*
X55806561Y-108973465D01*
X55710562Y-109205227D01*
X55710561Y-109205228D01*
X55571192Y-109413809D01*
X55393809Y-109591192D01*
X55288810Y-109661350D01*
X55185227Y-109730562D01*
X54953465Y-109826561D01*
X54707430Y-109875500D01*
X54456570Y-109875500D01*
X54210535Y-109826561D01*
X53978773Y-109730562D01*
X53875190Y-109661350D01*
X53770191Y-109591192D01*
X53592808Y-109413809D01*
X53453439Y-109205228D01*
X53453438Y-109205227D01*
X53357439Y-108973465D01*
X53308500Y-108727430D01*
X53308500Y-108476570D01*
X53357439Y-108230535D01*
X53453438Y-107998773D01*
X53592807Y-107790193D01*
X53592808Y-107790191D01*
X53770191Y-107612808D01*
X53978772Y-107473439D01*
X53978773Y-107473438D01*
X54210535Y-107377439D01*
X54456570Y-107328500D01*
X54707430Y-107328500D01*
X54953465Y-107377439D01*
G37*
G36*
X6626248Y-104113208D02*
G01*
X6763032Y-104140416D01*
X7020727Y-104247157D01*
X7252647Y-104402121D01*
X7449879Y-104599353D01*
X7604843Y-104831273D01*
X7711584Y-105088968D01*
X7766000Y-105362536D01*
X7766000Y-105641464D01*
X7711584Y-105915032D01*
X7604843Y-106172727D01*
X7449879Y-106404647D01*
X7252647Y-106601879D01*
X7020727Y-106756843D01*
X6763032Y-106863584D01*
X6626248Y-106890792D01*
X6489465Y-106918000D01*
X6210535Y-106918000D01*
X6073752Y-106890792D01*
X5936968Y-106863584D01*
X5679273Y-106756843D01*
X5447353Y-106601879D01*
X5250121Y-106404647D01*
X5095157Y-106172727D01*
X4988416Y-105915032D01*
X4934000Y-105641464D01*
X4934000Y-105362536D01*
X4988416Y-105088968D01*
X5095157Y-104831273D01*
X5250121Y-104599353D01*
X5447353Y-104402121D01*
X5679273Y-104247157D01*
X5936968Y-104140416D01*
X6073752Y-104113208D01*
X6210535Y-104086000D01*
X6489465Y-104086000D01*
X6626248Y-104113208D01*
G37*
G36*
X54858248Y-104113208D02*
G01*
X54995032Y-104140416D01*
X55252727Y-104247157D01*
X55484647Y-104402121D01*
X55681879Y-104599353D01*
X55836843Y-104831273D01*
X55943584Y-105088968D01*
X55998000Y-105362536D01*
X55998000Y-105641464D01*
X55943584Y-105915032D01*
X55836843Y-106172727D01*
X55681879Y-106404647D01*
X55484647Y-106601879D01*
X55252727Y-106756843D01*
X54995032Y-106863584D01*
X54858248Y-106890792D01*
X54721465Y-106918000D01*
X54442535Y-106918000D01*
X54305752Y-106890792D01*
X54168968Y-106863584D01*
X53911273Y-106756843D01*
X53679353Y-106601879D01*
X53482121Y-106404647D01*
X53327157Y-106172727D01*
X53220416Y-105915032D01*
X53166000Y-105641464D01*
X53166000Y-105362536D01*
X53220416Y-105088968D01*
X53327157Y-104831273D01*
X53482121Y-104599353D01*
X53679353Y-104402121D01*
X53911273Y-104247157D01*
X54168968Y-104140416D01*
X54305752Y-104113208D01*
X54442535Y-104086000D01*
X54721465Y-104086000D01*
X54858248Y-104113208D01*
G37*
G36*
X18684248Y-104113208D02*
G01*
X18821032Y-104140416D01*
X19078727Y-104247157D01*
X19310647Y-104402121D01*
X19507879Y-104599353D01*
X19662843Y-104831273D01*
X19769584Y-105088968D01*
X19824000Y-105362536D01*
X19824000Y-105641464D01*
X19769584Y-105915032D01*
X19662843Y-106172727D01*
X19507879Y-106404647D01*
X19310647Y-106601879D01*
X19078727Y-106756843D01*
X18821032Y-106863584D01*
X18684248Y-106890792D01*
X18547465Y-106918000D01*
X18268535Y-106918000D01*
X18131752Y-106890792D01*
X17994968Y-106863584D01*
X17737273Y-106756843D01*
X17505353Y-106601879D01*
X17308121Y-106404647D01*
X17153157Y-106172727D01*
X17046416Y-105915032D01*
X16992000Y-105641464D01*
X16992000Y-105362536D01*
X17046416Y-105088968D01*
X17153157Y-104831273D01*
X17308121Y-104599353D01*
X17505353Y-104402121D01*
X17737273Y-104247157D01*
X17994968Y-104140416D01*
X18131752Y-104113208D01*
X18268535Y-104086000D01*
X18547465Y-104086000D01*
X18684248Y-104113208D01*
G37*
G36*
X42800248Y-104113208D02*
G01*
X42937032Y-104140416D01*
X43194727Y-104247157D01*
X43426647Y-104402121D01*
X43623879Y-104599353D01*
X43778843Y-104831273D01*
X43885584Y-105088968D01*
X43940000Y-105362536D01*
X43940000Y-105641464D01*
X43885584Y-105915032D01*
X43778843Y-106172727D01*
X43623879Y-106404647D01*
X43426647Y-106601879D01*
X43194727Y-106756843D01*
X42937032Y-106863584D01*
X42800248Y-106890792D01*
X42663465Y-106918000D01*
X42384535Y-106918000D01*
X42247752Y-106890792D01*
X42110968Y-106863584D01*
X41853273Y-106756843D01*
X41621353Y-106601879D01*
X41424121Y-106404647D01*
X41269157Y-106172727D01*
X41162416Y-105915032D01*
X41108000Y-105641464D01*
X41108000Y-105362536D01*
X41162416Y-105088968D01*
X41269157Y-104831273D01*
X41424121Y-104599353D01*
X41621353Y-104402121D01*
X41853273Y-104247157D01*
X42110968Y-104140416D01*
X42247752Y-104113208D01*
X42384535Y-104086000D01*
X42663465Y-104086000D01*
X42800248Y-104113208D01*
G37*
G36*
X30742248Y-104113208D02*
G01*
X30879032Y-104140416D01*
X31136727Y-104247157D01*
X31368647Y-104402121D01*
X31565879Y-104599353D01*
X31720843Y-104831273D01*
X31827584Y-105088968D01*
X31882000Y-105362536D01*
X31882000Y-105641464D01*
X31827584Y-105915032D01*
X31720843Y-106172727D01*
X31565879Y-106404647D01*
X31368647Y-106601879D01*
X31136727Y-106756843D01*
X30879032Y-106863584D01*
X30742248Y-106890792D01*
X30605465Y-106918000D01*
X30326535Y-106918000D01*
X30189752Y-106890792D01*
X30052968Y-106863584D01*
X29795273Y-106756843D01*
X29563353Y-106601879D01*
X29366121Y-106404647D01*
X29211157Y-106172727D01*
X29104416Y-105915032D01*
X29050000Y-105641464D01*
X29050000Y-105362536D01*
X29104416Y-105088968D01*
X29211157Y-104831273D01*
X29366121Y-104599353D01*
X29563353Y-104402121D01*
X29795273Y-104247157D01*
X30052968Y-104140416D01*
X30189752Y-104113208D01*
X30326535Y-104086000D01*
X30605465Y-104086000D01*
X30742248Y-104113208D01*
G37*
G36*
X54884585Y-100600802D02*
G01*
X55034410Y-100630604D01*
X55316674Y-100747521D01*
X55570705Y-100917259D01*
X55786741Y-101133295D01*
X55956479Y-101387326D01*
X56073396Y-101669590D01*
X56133000Y-101969240D01*
X56133000Y-102274760D01*
X56073396Y-102574410D01*
X55956479Y-102856674D01*
X55786741Y-103110705D01*
X55570705Y-103326741D01*
X55316674Y-103496479D01*
X55034410Y-103613396D01*
X54884585Y-103643198D01*
X54734761Y-103673000D01*
X54429239Y-103673000D01*
X54279415Y-103643198D01*
X54129590Y-103613396D01*
X53847326Y-103496479D01*
X53593295Y-103326741D01*
X53377259Y-103110705D01*
X53207521Y-102856674D01*
X53090604Y-102574410D01*
X53031000Y-102274760D01*
X53031000Y-101969240D01*
X53090604Y-101669590D01*
X53207521Y-101387326D01*
X53377259Y-101133295D01*
X53593295Y-100917259D01*
X53847326Y-100747521D01*
X54129590Y-100630604D01*
X54279415Y-100600802D01*
X54429239Y-100571000D01*
X54734761Y-100571000D01*
X54884585Y-100600802D01*
G37*
G36*
X18710585Y-100600802D02*
G01*
X18860410Y-100630604D01*
X19142674Y-100747521D01*
X19396705Y-100917259D01*
X19612741Y-101133295D01*
X19782479Y-101387326D01*
X19899396Y-101669590D01*
X19959000Y-101969240D01*
X19959000Y-102274760D01*
X19899396Y-102574410D01*
X19782479Y-102856674D01*
X19612741Y-103110705D01*
X19396705Y-103326741D01*
X19142674Y-103496479D01*
X18860410Y-103613396D01*
X18710585Y-103643198D01*
X18560761Y-103673000D01*
X18255239Y-103673000D01*
X18105415Y-103643198D01*
X17955590Y-103613396D01*
X17673326Y-103496479D01*
X17419295Y-103326741D01*
X17203259Y-103110705D01*
X17033521Y-102856674D01*
X16916604Y-102574410D01*
X16857000Y-102274760D01*
X16857000Y-101969240D01*
X16916604Y-101669590D01*
X17033521Y-101387326D01*
X17203259Y-101133295D01*
X17419295Y-100917259D01*
X17673326Y-100747521D01*
X17955590Y-100630604D01*
X18105415Y-100600802D01*
X18255239Y-100571000D01*
X18560761Y-100571000D01*
X18710585Y-100600802D01*
G37*
G36*
X42826585Y-100600802D02*
G01*
X42976410Y-100630604D01*
X43258674Y-100747521D01*
X43512705Y-100917259D01*
X43728741Y-101133295D01*
X43898479Y-101387326D01*
X44015396Y-101669590D01*
X44075000Y-101969240D01*
X44075000Y-102274760D01*
X44015396Y-102574410D01*
X43898479Y-102856674D01*
X43728741Y-103110705D01*
X43512705Y-103326741D01*
X43258674Y-103496479D01*
X42976410Y-103613396D01*
X42826585Y-103643198D01*
X42676761Y-103673000D01*
X42371239Y-103673000D01*
X42221415Y-103643198D01*
X42071590Y-103613396D01*
X41789326Y-103496479D01*
X41535295Y-103326741D01*
X41319259Y-103110705D01*
X41149521Y-102856674D01*
X41032604Y-102574410D01*
X40973000Y-102274760D01*
X40973000Y-101969240D01*
X41032604Y-101669590D01*
X41149521Y-101387326D01*
X41319259Y-101133295D01*
X41535295Y-100917259D01*
X41789326Y-100747521D01*
X42071590Y-100630604D01*
X42221415Y-100600802D01*
X42371239Y-100571000D01*
X42676761Y-100571000D01*
X42826585Y-100600802D01*
G37*
G36*
X6652585Y-100600802D02*
G01*
X6802410Y-100630604D01*
X7084674Y-100747521D01*
X7338705Y-100917259D01*
X7554741Y-101133295D01*
X7724479Y-101387326D01*
X7841396Y-101669590D01*
X7901000Y-101969240D01*
X7901000Y-102274760D01*
X7841396Y-102574410D01*
X7724479Y-102856674D01*
X7554741Y-103110705D01*
X7338705Y-103326741D01*
X7084674Y-103496479D01*
X6802410Y-103613396D01*
X6652585Y-103643198D01*
X6502761Y-103673000D01*
X6197239Y-103673000D01*
X6047415Y-103643198D01*
X5897590Y-103613396D01*
X5615326Y-103496479D01*
X5361295Y-103326741D01*
X5145259Y-103110705D01*
X4975521Y-102856674D01*
X4858604Y-102574410D01*
X4799000Y-102274760D01*
X4799000Y-101969240D01*
X4858604Y-101669590D01*
X4975521Y-101387326D01*
X5145259Y-101133295D01*
X5361295Y-100917259D01*
X5615326Y-100747521D01*
X5897590Y-100630604D01*
X6047415Y-100600802D01*
X6197239Y-100571000D01*
X6502761Y-100571000D01*
X6652585Y-100600802D01*
G37*
G36*
X30768585Y-100600802D02*
G01*
X30918410Y-100630604D01*
X31200674Y-100747521D01*
X31454705Y-100917259D01*
X31670741Y-101133295D01*
X31840479Y-101387326D01*
X31957396Y-101669590D01*
X32017000Y-101969240D01*
X32017000Y-102274760D01*
X31957396Y-102574410D01*
X31840479Y-102856674D01*
X31670741Y-103110705D01*
X31454705Y-103326741D01*
X31200674Y-103496479D01*
X30918410Y-103613396D01*
X30768585Y-103643198D01*
X30618761Y-103673000D01*
X30313239Y-103673000D01*
X30163415Y-103643198D01*
X30013590Y-103613396D01*
X29731326Y-103496479D01*
X29477295Y-103326741D01*
X29261259Y-103110705D01*
X29091521Y-102856674D01*
X28974604Y-102574410D01*
X28915000Y-102274760D01*
X28915000Y-101969240D01*
X28974604Y-101669590D01*
X29091521Y-101387326D01*
X29261259Y-101133295D01*
X29477295Y-100917259D01*
X29731326Y-100747521D01*
X30013590Y-100630604D01*
X30163415Y-100600802D01*
X30313239Y-100571000D01*
X30618761Y-100571000D01*
X30768585Y-100600802D01*
G37*
G36*
X42794395Y-95842631D02*
G01*
X42928281Y-95869263D01*
X43054399Y-95921503D01*
X43180518Y-95973743D01*
X43407521Y-96125421D01*
X43600579Y-96318479D01*
X43752257Y-96545482D01*
X43856737Y-96797720D01*
X43910000Y-97065490D01*
X43910000Y-97338510D01*
X43856737Y-97606280D01*
X43752257Y-97858518D01*
X43600579Y-98085521D01*
X43407521Y-98278579D01*
X43180518Y-98430257D01*
X43054399Y-98482497D01*
X42928281Y-98534737D01*
X42794395Y-98561369D01*
X42660510Y-98588000D01*
X42387490Y-98588000D01*
X42253605Y-98561369D01*
X42119719Y-98534737D01*
X41993601Y-98482497D01*
X41867482Y-98430257D01*
X41640479Y-98278579D01*
X41447421Y-98085521D01*
X41295743Y-97858518D01*
X41191263Y-97606280D01*
X41138000Y-97338510D01*
X41138000Y-97065490D01*
X41191263Y-96797720D01*
X41295743Y-96545482D01*
X41447421Y-96318479D01*
X41640479Y-96125421D01*
X41867482Y-95973743D01*
X41993601Y-95921503D01*
X42119719Y-95869263D01*
X42253605Y-95842631D01*
X42387490Y-95816000D01*
X42660510Y-95816000D01*
X42794395Y-95842631D01*
G37*
G36*
X18678395Y-95842631D02*
G01*
X18812281Y-95869263D01*
X18938399Y-95921503D01*
X19064518Y-95973743D01*
X19291521Y-96125421D01*
X19484579Y-96318479D01*
X19636257Y-96545482D01*
X19740737Y-96797720D01*
X19794000Y-97065490D01*
X19794000Y-97338510D01*
X19740737Y-97606280D01*
X19636257Y-97858518D01*
X19484579Y-98085521D01*
X19291521Y-98278579D01*
X19064518Y-98430257D01*
X18938399Y-98482497D01*
X18812281Y-98534737D01*
X18678395Y-98561369D01*
X18544510Y-98588000D01*
X18271490Y-98588000D01*
X18137605Y-98561369D01*
X18003719Y-98534737D01*
X17877601Y-98482497D01*
X17751482Y-98430257D01*
X17524479Y-98278579D01*
X17331421Y-98085521D01*
X17179743Y-97858518D01*
X17075263Y-97606280D01*
X17022000Y-97338510D01*
X17022000Y-97065490D01*
X17075263Y-96797720D01*
X17179743Y-96545482D01*
X17331421Y-96318479D01*
X17524479Y-96125421D01*
X17751482Y-95973743D01*
X17877601Y-95921503D01*
X18003719Y-95869263D01*
X18137605Y-95842631D01*
X18271490Y-95816000D01*
X18544510Y-95816000D01*
X18678395Y-95842631D01*
G37*
G36*
X6620395Y-95842631D02*
G01*
X6754281Y-95869263D01*
X6880399Y-95921503D01*
X7006518Y-95973743D01*
X7233521Y-96125421D01*
X7426579Y-96318479D01*
X7578257Y-96545482D01*
X7682737Y-96797720D01*
X7736000Y-97065490D01*
X7736000Y-97338510D01*
X7682737Y-97606280D01*
X7578257Y-97858518D01*
X7426579Y-98085521D01*
X7233521Y-98278579D01*
X7006518Y-98430257D01*
X6880399Y-98482497D01*
X6754281Y-98534737D01*
X6620395Y-98561369D01*
X6486510Y-98588000D01*
X6213490Y-98588000D01*
X6079605Y-98561369D01*
X5945719Y-98534737D01*
X5819601Y-98482497D01*
X5693482Y-98430257D01*
X5466479Y-98278579D01*
X5273421Y-98085521D01*
X5121743Y-97858518D01*
X5017263Y-97606280D01*
X4964000Y-97338510D01*
X4964000Y-97065490D01*
X5017263Y-96797720D01*
X5121743Y-96545482D01*
X5273421Y-96318479D01*
X5466479Y-96125421D01*
X5693482Y-95973743D01*
X5819601Y-95921503D01*
X5945719Y-95869263D01*
X6079605Y-95842631D01*
X6213490Y-95816000D01*
X6486510Y-95816000D01*
X6620395Y-95842631D01*
G37*
G36*
X54852395Y-95842631D02*
G01*
X54986281Y-95869263D01*
X55112399Y-95921503D01*
X55238518Y-95973743D01*
X55465521Y-96125421D01*
X55658579Y-96318479D01*
X55810257Y-96545482D01*
X55914737Y-96797720D01*
X55968000Y-97065490D01*
X55968000Y-97338510D01*
X55914737Y-97606280D01*
X55810257Y-97858518D01*
X55658579Y-98085521D01*
X55465521Y-98278579D01*
X55238518Y-98430257D01*
X55112399Y-98482497D01*
X54986281Y-98534737D01*
X54852395Y-98561369D01*
X54718510Y-98588000D01*
X54445490Y-98588000D01*
X54311605Y-98561369D01*
X54177719Y-98534737D01*
X54051601Y-98482497D01*
X53925482Y-98430257D01*
X53698479Y-98278579D01*
X53505421Y-98085521D01*
X53353743Y-97858518D01*
X53249263Y-97606280D01*
X53196000Y-97338510D01*
X53196000Y-97065490D01*
X53249263Y-96797720D01*
X53353743Y-96545482D01*
X53505421Y-96318479D01*
X53698479Y-96125421D01*
X53925482Y-95973743D01*
X54051601Y-95921503D01*
X54177719Y-95869263D01*
X54311605Y-95842631D01*
X54445490Y-95816000D01*
X54718510Y-95816000D01*
X54852395Y-95842631D01*
G37*
G36*
X30736395Y-95842631D02*
G01*
X30870281Y-95869263D01*
X30996399Y-95921503D01*
X31122518Y-95973743D01*
X31349521Y-96125421D01*
X31542579Y-96318479D01*
X31694257Y-96545482D01*
X31798737Y-96797720D01*
X31852000Y-97065490D01*
X31852000Y-97338510D01*
X31798737Y-97606280D01*
X31694257Y-97858518D01*
X31542579Y-98085521D01*
X31349521Y-98278579D01*
X31122518Y-98430257D01*
X30996399Y-98482497D01*
X30870281Y-98534737D01*
X30736395Y-98561369D01*
X30602510Y-98588000D01*
X30329490Y-98588000D01*
X30195605Y-98561369D01*
X30061719Y-98534737D01*
X29935601Y-98482497D01*
X29809482Y-98430257D01*
X29582479Y-98278579D01*
X29389421Y-98085521D01*
X29237743Y-97858518D01*
X29133263Y-97606280D01*
X29080000Y-97338510D01*
X29080000Y-97065490D01*
X29133263Y-96797720D01*
X29237743Y-96545482D01*
X29389421Y-96318479D01*
X29582479Y-96125421D01*
X29809482Y-95973743D01*
X29935601Y-95921503D01*
X30061719Y-95869263D01*
X30195605Y-95842631D01*
X30329490Y-95816000D01*
X30602510Y-95816000D01*
X30736395Y-95842631D01*
G37*
G36*
X9364794Y-92063155D02*
G01*
X9471150Y-92084311D01*
X9671520Y-92167307D01*
X9851844Y-92287795D01*
X10005205Y-92441156D01*
X10125693Y-92621480D01*
X10208689Y-92821851D01*
X10251000Y-93034560D01*
X10251000Y-93251440D01*
X10208689Y-93464149D01*
X10125693Y-93664520D01*
X10005205Y-93844844D01*
X9851844Y-93998205D01*
X9671520Y-94118693D01*
X9571334Y-94160191D01*
X9471150Y-94201689D01*
X9364794Y-94222845D01*
X9258440Y-94244000D01*
X9041560Y-94244000D01*
X8935206Y-94222845D01*
X8828850Y-94201689D01*
X8728666Y-94160191D01*
X8628480Y-94118693D01*
X8448156Y-93998205D01*
X8294795Y-93844844D01*
X8174307Y-93664520D01*
X8091311Y-93464149D01*
X8049000Y-93251440D01*
X8049000Y-93034560D01*
X8091311Y-92821851D01*
X8174307Y-92621480D01*
X8294795Y-92441156D01*
X8448156Y-92287795D01*
X8628480Y-92167307D01*
X8828850Y-92084311D01*
X8935206Y-92063155D01*
X9041560Y-92042000D01*
X9258440Y-92042000D01*
X9364794Y-92063155D01*
G37*
G36*
X51306272Y-89559428D02*
G01*
X51492991Y-89636770D01*
X51492993Y-89636771D01*
X51661037Y-89749054D01*
X51803946Y-89891963D01*
X51855442Y-89969033D01*
X51916230Y-90060009D01*
X51993572Y-90246728D01*
X52033000Y-90444947D01*
X52033000Y-90647053D01*
X51993572Y-90845272D01*
X51916230Y-91031991D01*
X51916229Y-91031993D01*
X51803946Y-91200037D01*
X51661037Y-91342946D01*
X51492993Y-91455229D01*
X51492992Y-91455230D01*
X51492991Y-91455230D01*
X51306272Y-91532572D01*
X51108053Y-91572000D01*
X50905947Y-91572000D01*
X50707728Y-91532572D01*
X50521009Y-91455230D01*
X50521008Y-91455230D01*
X50521007Y-91455229D01*
X50352963Y-91342946D01*
X50210054Y-91200037D01*
X50097771Y-91031993D01*
X50097770Y-91031991D01*
X50020428Y-90845272D01*
X49981000Y-90647053D01*
X49981000Y-90444947D01*
X50020428Y-90246728D01*
X50097770Y-90060009D01*
X50158558Y-89969033D01*
X50210054Y-89891963D01*
X50352963Y-89749054D01*
X50521007Y-89636771D01*
X50521009Y-89636770D01*
X50707728Y-89559428D01*
X50905947Y-89520000D01*
X51108053Y-89520000D01*
X51306272Y-89559428D01*
G37*
G36*
X44077272Y-89559428D02*
G01*
X44263991Y-89636770D01*
X44263993Y-89636771D01*
X44432037Y-89749054D01*
X44574946Y-89891963D01*
X44626442Y-89969033D01*
X44687230Y-90060009D01*
X44764572Y-90246728D01*
X44804000Y-90444947D01*
X44804000Y-90647053D01*
X44764572Y-90845272D01*
X44687230Y-91031991D01*
X44687229Y-91031993D01*
X44574946Y-91200037D01*
X44432037Y-91342946D01*
X44263993Y-91455229D01*
X44263992Y-91455230D01*
X44263991Y-91455230D01*
X44077272Y-91532572D01*
X43879053Y-91572000D01*
X43676947Y-91572000D01*
X43478728Y-91532572D01*
X43292009Y-91455230D01*
X43292008Y-91455230D01*
X43292007Y-91455229D01*
X43123963Y-91342946D01*
X42981054Y-91200037D01*
X42868771Y-91031993D01*
X42868770Y-91031991D01*
X42791428Y-90845272D01*
X42752000Y-90647053D01*
X42752000Y-90444947D01*
X42791428Y-90246728D01*
X42868770Y-90060009D01*
X42929558Y-89969033D01*
X42981054Y-89891963D01*
X43123963Y-89749054D01*
X43292007Y-89636771D01*
X43292009Y-89636770D01*
X43478728Y-89559428D01*
X43676947Y-89520000D01*
X43879053Y-89520000D01*
X44077272Y-89559428D01*
G37*
G36*
X39077272Y-89559428D02*
G01*
X39263991Y-89636770D01*
X39263993Y-89636771D01*
X39432037Y-89749054D01*
X39574946Y-89891963D01*
X39626442Y-89969033D01*
X39687230Y-90060009D01*
X39764572Y-90246728D01*
X39804000Y-90444947D01*
X39804000Y-90647053D01*
X39764572Y-90845272D01*
X39687230Y-91031991D01*
X39687229Y-91031993D01*
X39574946Y-91200037D01*
X39432037Y-91342946D01*
X39263993Y-91455229D01*
X39263992Y-91455230D01*
X39263991Y-91455230D01*
X39077272Y-91532572D01*
X38879053Y-91572000D01*
X38676947Y-91572000D01*
X38478728Y-91532572D01*
X38292009Y-91455230D01*
X38292008Y-91455230D01*
X38292007Y-91455229D01*
X38123963Y-91342946D01*
X37981054Y-91200037D01*
X37868771Y-91031993D01*
X37868770Y-91031991D01*
X37791428Y-90845272D01*
X37752000Y-90647053D01*
X37752000Y-90444947D01*
X37791428Y-90246728D01*
X37868770Y-90060009D01*
X37929558Y-89969033D01*
X37981054Y-89891963D01*
X38123963Y-89749054D01*
X38292007Y-89636771D01*
X38292009Y-89636770D01*
X38478728Y-89559428D01*
X38676947Y-89520000D01*
X38879053Y-89520000D01*
X39077272Y-89559428D01*
G37*
G36*
X19730272Y-89559428D02*
G01*
X19916991Y-89636770D01*
X19916993Y-89636771D01*
X20085037Y-89749054D01*
X20227946Y-89891963D01*
X20279442Y-89969033D01*
X20340230Y-90060009D01*
X20417572Y-90246728D01*
X20457000Y-90444947D01*
X20457000Y-90647053D01*
X20417572Y-90845272D01*
X20340230Y-91031991D01*
X20340229Y-91031993D01*
X20227946Y-91200037D01*
X20085037Y-91342946D01*
X19916993Y-91455229D01*
X19916992Y-91455230D01*
X19916991Y-91455230D01*
X19730272Y-91532572D01*
X19532053Y-91572000D01*
X19329947Y-91572000D01*
X19131728Y-91532572D01*
X18945009Y-91455230D01*
X18945008Y-91455230D01*
X18945007Y-91455229D01*
X18776963Y-91342946D01*
X18634054Y-91200037D01*
X18521771Y-91031993D01*
X18521770Y-91031991D01*
X18444428Y-90845272D01*
X18405000Y-90647053D01*
X18405000Y-90444947D01*
X18444428Y-90246728D01*
X18521770Y-90060009D01*
X18582558Y-89969033D01*
X18634054Y-89891963D01*
X18776963Y-89749054D01*
X18945007Y-89636771D01*
X18945009Y-89636770D01*
X19131728Y-89559428D01*
X19329947Y-89520000D01*
X19532053Y-89520000D01*
X19730272Y-89559428D01*
G37*
G36*
X14730272Y-89559428D02*
G01*
X14916991Y-89636770D01*
X14916993Y-89636771D01*
X15085037Y-89749054D01*
X15227946Y-89891963D01*
X15279442Y-89969033D01*
X15340230Y-90060009D01*
X15417572Y-90246728D01*
X15457000Y-90444947D01*
X15457000Y-90647053D01*
X15417572Y-90845272D01*
X15340230Y-91031991D01*
X15340229Y-91031993D01*
X15227946Y-91200037D01*
X15085037Y-91342946D01*
X14916993Y-91455229D01*
X14916992Y-91455230D01*
X14916991Y-91455230D01*
X14730272Y-91532572D01*
X14532053Y-91572000D01*
X14329947Y-91572000D01*
X14131728Y-91532572D01*
X13945009Y-91455230D01*
X13945008Y-91455230D01*
X13945007Y-91455229D01*
X13776963Y-91342946D01*
X13634054Y-91200037D01*
X13521771Y-91031993D01*
X13521770Y-91031991D01*
X13444428Y-90845272D01*
X13405000Y-90647053D01*
X13405000Y-90444947D01*
X13444428Y-90246728D01*
X13521770Y-90060009D01*
X13582558Y-89969033D01*
X13634054Y-89891963D01*
X13776963Y-89749054D01*
X13945007Y-89636771D01*
X13945009Y-89636770D01*
X14131728Y-89559428D01*
X14329947Y-89520000D01*
X14532053Y-89520000D01*
X14730272Y-89559428D01*
G37*
G36*
X31922272Y-89559428D02*
G01*
X32108991Y-89636770D01*
X32108993Y-89636771D01*
X32277037Y-89749054D01*
X32419946Y-89891963D01*
X32471442Y-89969033D01*
X32532230Y-90060009D01*
X32609572Y-90246728D01*
X32649000Y-90444947D01*
X32649000Y-90647053D01*
X32609572Y-90845272D01*
X32532230Y-91031991D01*
X32532229Y-91031993D01*
X32419946Y-91200037D01*
X32277037Y-91342946D01*
X32108993Y-91455229D01*
X32108992Y-91455230D01*
X32108991Y-91455230D01*
X31922272Y-91532572D01*
X31724053Y-91572000D01*
X31521947Y-91572000D01*
X31323728Y-91532572D01*
X31137009Y-91455230D01*
X31137008Y-91455230D01*
X31137007Y-91455229D01*
X30968963Y-91342946D01*
X30826054Y-91200037D01*
X30713771Y-91031993D01*
X30713770Y-91031991D01*
X30636428Y-90845272D01*
X30597000Y-90647053D01*
X30597000Y-90444947D01*
X30636428Y-90246728D01*
X30713770Y-90060009D01*
X30774558Y-89969033D01*
X30826054Y-89891963D01*
X30968963Y-89749054D01*
X31137007Y-89636771D01*
X31137009Y-89636770D01*
X31323728Y-89559428D01*
X31521947Y-89520000D01*
X31724053Y-89520000D01*
X31922272Y-89559428D01*
G37*
G36*
X26922272Y-89559428D02*
G01*
X27108991Y-89636770D01*
X27108993Y-89636771D01*
X27277037Y-89749054D01*
X27419946Y-89891963D01*
X27471442Y-89969033D01*
X27532230Y-90060009D01*
X27609572Y-90246728D01*
X27649000Y-90444947D01*
X27649000Y-90647053D01*
X27609572Y-90845272D01*
X27532230Y-91031991D01*
X27532229Y-91031993D01*
X27419946Y-91200037D01*
X27277037Y-91342946D01*
X27108993Y-91455229D01*
X27108992Y-91455230D01*
X27108991Y-91455230D01*
X26922272Y-91532572D01*
X26724053Y-91572000D01*
X26521947Y-91572000D01*
X26323728Y-91532572D01*
X26137009Y-91455230D01*
X26137008Y-91455230D01*
X26137007Y-91455229D01*
X25968963Y-91342946D01*
X25826054Y-91200037D01*
X25713771Y-91031993D01*
X25713770Y-91031991D01*
X25636428Y-90845272D01*
X25597000Y-90647053D01*
X25597000Y-90444947D01*
X25636428Y-90246728D01*
X25713770Y-90060009D01*
X25774558Y-89969033D01*
X25826054Y-89891963D01*
X25968963Y-89749054D01*
X26137007Y-89636771D01*
X26137009Y-89636770D01*
X26323728Y-89559428D01*
X26521947Y-89520000D01*
X26724053Y-89520000D01*
X26922272Y-89559428D01*
G37*
G36*
X56306272Y-89559428D02*
G01*
X56492991Y-89636770D01*
X56492993Y-89636771D01*
X56661037Y-89749054D01*
X56803946Y-89891963D01*
X56855442Y-89969033D01*
X56916230Y-90060009D01*
X56993572Y-90246728D01*
X57033000Y-90444947D01*
X57033000Y-90647053D01*
X56993572Y-90845272D01*
X56916230Y-91031991D01*
X56916229Y-91031993D01*
X56803946Y-91200037D01*
X56661037Y-91342946D01*
X56492993Y-91455229D01*
X56492992Y-91455230D01*
X56492991Y-91455230D01*
X56306272Y-91532572D01*
X56108053Y-91572000D01*
X55905947Y-91572000D01*
X55707728Y-91532572D01*
X55521009Y-91455230D01*
X55521008Y-91455230D01*
X55521007Y-91455229D01*
X55352963Y-91342946D01*
X55210054Y-91200037D01*
X55097771Y-91031993D01*
X55097770Y-91031991D01*
X55020428Y-90845272D01*
X54981000Y-90647053D01*
X54981000Y-90444947D01*
X55020428Y-90246728D01*
X55097770Y-90060009D01*
X55158558Y-89969033D01*
X55210054Y-89891963D01*
X55352963Y-89749054D01*
X55521007Y-89636771D01*
X55521009Y-89636770D01*
X55707728Y-89559428D01*
X55905947Y-89520000D01*
X56108053Y-89520000D01*
X56306272Y-89559428D01*
G37*
G36*
X6569059Y-89320860D02*
G01*
X6705732Y-89377472D01*
X6828735Y-89459660D01*
X6933340Y-89564265D01*
X7015528Y-89687268D01*
X7072140Y-89823941D01*
X7101000Y-89969033D01*
X7101000Y-90116967D01*
X7072140Y-90262059D01*
X7015528Y-90398732D01*
X6933340Y-90521735D01*
X6828735Y-90626340D01*
X6705732Y-90708528D01*
X6705731Y-90708529D01*
X6705730Y-90708529D01*
X6569059Y-90765140D01*
X6423968Y-90794000D01*
X6276032Y-90794000D01*
X6130941Y-90765140D01*
X5994270Y-90708529D01*
X5994269Y-90708529D01*
X5994268Y-90708528D01*
X5871265Y-90626340D01*
X5766660Y-90521735D01*
X5684472Y-90398732D01*
X5627860Y-90262059D01*
X5599000Y-90116967D01*
X5599000Y-89969033D01*
X5627860Y-89823941D01*
X5684472Y-89687268D01*
X5766660Y-89564265D01*
X5871265Y-89459660D01*
X5994268Y-89377472D01*
X6130941Y-89320860D01*
X6276032Y-89292000D01*
X6423968Y-89292000D01*
X6569059Y-89320860D01*
G37*
G36*
X6569059Y-84320860D02*
G01*
X6705732Y-84377472D01*
X6828735Y-84459660D01*
X6933340Y-84564265D01*
X6995582Y-84657417D01*
X7015529Y-84687270D01*
X7044623Y-84757509D01*
X7072140Y-84823941D01*
X7101000Y-84969033D01*
X7101000Y-85116967D01*
X7072140Y-85262059D01*
X7015528Y-85398732D01*
X6933340Y-85521735D01*
X6828735Y-85626340D01*
X6705732Y-85708528D01*
X6705731Y-85708529D01*
X6705730Y-85708529D01*
X6569059Y-85765140D01*
X6423968Y-85794000D01*
X6276032Y-85794000D01*
X6130941Y-85765140D01*
X5994270Y-85708529D01*
X5994269Y-85708529D01*
X5994268Y-85708528D01*
X5871265Y-85626340D01*
X5766660Y-85521735D01*
X5684472Y-85398732D01*
X5627860Y-85262059D01*
X5599000Y-85116967D01*
X5599000Y-84969033D01*
X5627860Y-84823941D01*
X5655377Y-84757509D01*
X5684471Y-84687270D01*
X5704418Y-84657417D01*
X5766660Y-84564265D01*
X5871265Y-84459660D01*
X5994268Y-84377472D01*
X6130941Y-84320860D01*
X6276032Y-84292000D01*
X6423968Y-84292000D01*
X6569059Y-84320860D01*
G37*
G36*
X57416778Y-83067547D02*
G01*
X57583224Y-83136491D01*
X57733022Y-83236583D01*
X57860417Y-83363978D01*
X57960509Y-83513776D01*
X58029453Y-83680222D01*
X58064600Y-83856918D01*
X58064600Y-84037082D01*
X58029453Y-84213778D01*
X57960509Y-84380224D01*
X57860417Y-84530022D01*
X57733022Y-84657417D01*
X57583224Y-84757509D01*
X57416778Y-84826453D01*
X57240082Y-84861600D01*
X57059918Y-84861600D01*
X56883222Y-84826453D01*
X56716776Y-84757509D01*
X56566978Y-84657417D01*
X56439583Y-84530022D01*
X56339491Y-84380224D01*
X56270547Y-84213778D01*
X56235400Y-84037082D01*
X56235400Y-83856918D01*
X56270547Y-83680222D01*
X56339491Y-83513776D01*
X56439583Y-83363978D01*
X56566978Y-83236583D01*
X56716776Y-83136491D01*
X56883222Y-83067547D01*
X57059918Y-83032400D01*
X57240082Y-83032400D01*
X57416778Y-83067547D01*
G37*
G36*
X54876778Y-83067547D02*
G01*
X55043224Y-83136491D01*
X55193022Y-83236583D01*
X55320417Y-83363978D01*
X55420509Y-83513776D01*
X55489453Y-83680222D01*
X55524600Y-83856918D01*
X55524600Y-84037082D01*
X55489453Y-84213778D01*
X55420509Y-84380224D01*
X55320417Y-84530022D01*
X55193022Y-84657417D01*
X55043224Y-84757509D01*
X54876778Y-84826453D01*
X54700082Y-84861600D01*
X54519918Y-84861600D01*
X54343222Y-84826453D01*
X54176776Y-84757509D01*
X54026978Y-84657417D01*
X53899583Y-84530022D01*
X53799491Y-84380224D01*
X53730547Y-84213778D01*
X53695400Y-84037082D01*
X53695400Y-83856918D01*
X53730547Y-83680222D01*
X53799491Y-83513776D01*
X53899583Y-83363978D01*
X54026978Y-83236583D01*
X54176776Y-83136491D01*
X54343222Y-83067547D01*
X54519918Y-83032400D01*
X54700082Y-83032400D01*
X54876778Y-83067547D01*
G37*
G36*
X6569059Y-81820860D02*
G01*
X6705732Y-81877472D01*
X6828735Y-81959660D01*
X6933340Y-82064265D01*
X6933341Y-82064267D01*
X7015529Y-82187270D01*
X7056612Y-82286453D01*
X7072140Y-82323941D01*
X7101000Y-82469033D01*
X7101000Y-82616967D01*
X7072140Y-82762059D01*
X7015528Y-82898732D01*
X6933340Y-83021735D01*
X6828735Y-83126340D01*
X6705732Y-83208528D01*
X6705731Y-83208529D01*
X6705730Y-83208529D01*
X6569059Y-83265140D01*
X6423968Y-83294000D01*
X6276032Y-83294000D01*
X6130941Y-83265140D01*
X5994270Y-83208529D01*
X5994269Y-83208529D01*
X5994268Y-83208528D01*
X5871265Y-83126340D01*
X5766660Y-83021735D01*
X5684472Y-82898732D01*
X5627860Y-82762059D01*
X5599000Y-82616967D01*
X5599000Y-82469033D01*
X5627860Y-82323941D01*
X5643388Y-82286453D01*
X5684471Y-82187270D01*
X5766659Y-82064267D01*
X5766660Y-82064265D01*
X5871265Y-81959660D01*
X5994268Y-81877472D01*
X6130941Y-81820860D01*
X6276032Y-81792000D01*
X6423968Y-81792000D01*
X6569059Y-81820860D01*
G37*
G36*
X54876778Y-80527547D02*
G01*
X55043224Y-80596491D01*
X55193022Y-80696583D01*
X55320417Y-80823978D01*
X55420509Y-80973776D01*
X55489453Y-81140222D01*
X55524600Y-81316918D01*
X55524600Y-81497082D01*
X55489453Y-81673778D01*
X55420509Y-81840224D01*
X55320417Y-81990022D01*
X55193022Y-82117417D01*
X55043224Y-82217509D01*
X54876778Y-82286453D01*
X54700082Y-82321600D01*
X54519918Y-82321600D01*
X54343222Y-82286453D01*
X54176776Y-82217509D01*
X54026978Y-82117417D01*
X53899583Y-81990022D01*
X53799491Y-81840224D01*
X53730547Y-81673778D01*
X53695400Y-81497082D01*
X53695400Y-81316918D01*
X53730547Y-81140222D01*
X53799491Y-80973776D01*
X53899583Y-80823978D01*
X54026978Y-80696583D01*
X54176776Y-80596491D01*
X54343222Y-80527547D01*
X54519918Y-80492400D01*
X54700082Y-80492400D01*
X54876778Y-80527547D01*
G37*
G36*
X57416778Y-80527547D02*
G01*
X57583224Y-80596491D01*
X57733022Y-80696583D01*
X57860417Y-80823978D01*
X57960509Y-80973776D01*
X58029453Y-81140222D01*
X58064600Y-81316918D01*
X58064600Y-81497082D01*
X58029453Y-81673778D01*
X57960509Y-81840224D01*
X57860417Y-81990022D01*
X57733022Y-82117417D01*
X57583224Y-82217509D01*
X57416778Y-82286453D01*
X57240082Y-82321600D01*
X57059918Y-82321600D01*
X56883222Y-82286453D01*
X56716776Y-82217509D01*
X56566978Y-82117417D01*
X56439583Y-81990022D01*
X56339491Y-81840224D01*
X56270547Y-81673778D01*
X56235400Y-81497082D01*
X56235400Y-81316918D01*
X56270547Y-81140222D01*
X56339491Y-80973776D01*
X56439583Y-80823978D01*
X56566978Y-80696583D01*
X56716776Y-80596491D01*
X56883222Y-80527547D01*
X57059918Y-80492400D01*
X57240082Y-80492400D01*
X57416778Y-80527547D01*
G37*
G36*
X6465313Y-79300224D02*
G01*
X6569059Y-79320860D01*
X6705732Y-79377472D01*
X6828735Y-79459660D01*
X6933340Y-79564265D01*
X7015528Y-79687268D01*
X7072140Y-79823941D01*
X7101000Y-79969033D01*
X7101000Y-80116967D01*
X7072140Y-80262059D01*
X7015528Y-80398732D01*
X6933340Y-80521735D01*
X6828735Y-80626340D01*
X6705732Y-80708528D01*
X6705731Y-80708529D01*
X6705730Y-80708529D01*
X6569059Y-80765140D01*
X6423968Y-80794000D01*
X6276032Y-80794000D01*
X6130941Y-80765140D01*
X5994270Y-80708529D01*
X5994269Y-80708529D01*
X5994268Y-80708528D01*
X5871265Y-80626340D01*
X5766660Y-80521735D01*
X5684472Y-80398732D01*
X5627860Y-80262059D01*
X5599000Y-80116967D01*
X5599000Y-79969033D01*
X5627860Y-79823941D01*
X5684472Y-79687268D01*
X5766660Y-79564265D01*
X5871265Y-79459660D01*
X5994268Y-79377472D01*
X6130941Y-79320860D01*
X6234687Y-79300224D01*
X6276032Y-79292000D01*
X6423968Y-79292000D01*
X6465313Y-79300224D01*
G37*
G36*
X54876778Y-77987547D02*
G01*
X55043224Y-78056491D01*
X55193022Y-78156583D01*
X55320417Y-78283978D01*
X55420509Y-78433776D01*
X55489453Y-78600222D01*
X55524600Y-78776918D01*
X55524600Y-78957082D01*
X55489453Y-79133778D01*
X55420509Y-79300224D01*
X55320417Y-79450022D01*
X55193022Y-79577417D01*
X55043224Y-79677509D01*
X54876778Y-79746453D01*
X54700082Y-79781600D01*
X54519918Y-79781600D01*
X54343222Y-79746453D01*
X54176776Y-79677509D01*
X54026978Y-79577417D01*
X53899583Y-79450022D01*
X53799491Y-79300224D01*
X53730547Y-79133778D01*
X53695400Y-78957082D01*
X53695400Y-78776918D01*
X53730547Y-78600222D01*
X53799491Y-78433776D01*
X53899583Y-78283978D01*
X54026978Y-78156583D01*
X54176776Y-78056491D01*
X54343222Y-77987547D01*
X54519918Y-77952400D01*
X54700082Y-77952400D01*
X54876778Y-77987547D01*
G37*
G36*
X57416778Y-77987547D02*
G01*
X57583224Y-78056491D01*
X57733022Y-78156583D01*
X57860417Y-78283978D01*
X57960509Y-78433776D01*
X58029453Y-78600222D01*
X58064600Y-78776918D01*
X58064600Y-78957082D01*
X58029453Y-79133778D01*
X57960509Y-79300224D01*
X57860417Y-79450022D01*
X57733022Y-79577417D01*
X57583224Y-79677509D01*
X57416778Y-79746453D01*
X57240082Y-79781600D01*
X57059918Y-79781600D01*
X56883222Y-79746453D01*
X56716776Y-79677509D01*
X56566978Y-79577417D01*
X56439583Y-79450022D01*
X56339491Y-79300224D01*
X56270547Y-79133778D01*
X56235400Y-78957082D01*
X56235400Y-78776918D01*
X56270547Y-78600222D01*
X56339491Y-78433776D01*
X56439583Y-78283978D01*
X56566978Y-78156583D01*
X56716776Y-78056491D01*
X56883222Y-77987547D01*
X57059918Y-77952400D01*
X57240082Y-77952400D01*
X57416778Y-77987547D01*
G37*
G36*
X3764795Y-75863156D02*
G01*
X3871150Y-75884311D01*
X3894000Y-75893776D01*
X4071520Y-75967307D01*
X4251844Y-76087795D01*
X4405205Y-76241156D01*
X4525693Y-76421480D01*
X4525693Y-76421481D01*
X4597062Y-76593779D01*
X4608689Y-76621851D01*
X4651000Y-76834560D01*
X4651000Y-77051440D01*
X4608689Y-77264149D01*
X4525693Y-77464520D01*
X4405205Y-77644844D01*
X4251844Y-77798205D01*
X4071520Y-77918693D01*
X3990144Y-77952400D01*
X3871150Y-78001689D01*
X3764795Y-78022844D01*
X3658440Y-78044000D01*
X3441560Y-78044000D01*
X3335205Y-78022844D01*
X3228850Y-78001689D01*
X3109856Y-77952400D01*
X3028480Y-77918693D01*
X2848156Y-77798205D01*
X2694795Y-77644844D01*
X2574307Y-77464520D01*
X2491311Y-77264149D01*
X2449000Y-77051440D01*
X2449000Y-76834560D01*
X2491311Y-76621851D01*
X2502939Y-76593779D01*
X2574307Y-76421481D01*
X2574307Y-76421480D01*
X2694795Y-76241156D01*
X2848156Y-76087795D01*
X3028480Y-75967307D01*
X3206000Y-75893776D01*
X3228850Y-75884311D01*
X3335205Y-75863156D01*
X3441560Y-75842000D01*
X3658440Y-75842000D01*
X3764795Y-75863156D01*
G37*
G36*
X57416778Y-75447547D02*
G01*
X57583224Y-75516491D01*
X57733022Y-75616583D01*
X57860417Y-75743978D01*
X57960509Y-75893776D01*
X58029453Y-76060222D01*
X58064600Y-76236918D01*
X58064600Y-76417082D01*
X58029453Y-76593778D01*
X57960509Y-76760224D01*
X57860417Y-76910022D01*
X57733022Y-77037417D01*
X57583224Y-77137509D01*
X57416778Y-77206453D01*
X57240082Y-77241600D01*
X57059918Y-77241600D01*
X56883222Y-77206453D01*
X56716776Y-77137509D01*
X56566978Y-77037417D01*
X56439583Y-76910022D01*
X56339491Y-76760224D01*
X56270547Y-76593778D01*
X56235400Y-76417082D01*
X56235400Y-76236918D01*
X56270547Y-76060222D01*
X56339491Y-75893776D01*
X56439583Y-75743978D01*
X56566978Y-75616583D01*
X56716776Y-75516491D01*
X56883222Y-75447547D01*
X57059918Y-75412400D01*
X57240082Y-75412400D01*
X57416778Y-75447547D01*
G37*
G36*
X54876778Y-75447547D02*
G01*
X55043224Y-75516491D01*
X55193022Y-75616583D01*
X55320417Y-75743978D01*
X55420509Y-75893776D01*
X55489453Y-76060222D01*
X55524600Y-76236918D01*
X55524600Y-76417082D01*
X55489453Y-76593778D01*
X55420509Y-76760224D01*
X55320417Y-76910022D01*
X55193022Y-77037417D01*
X55043224Y-77137509D01*
X54876778Y-77206453D01*
X54700082Y-77241600D01*
X54519918Y-77241600D01*
X54343222Y-77206453D01*
X54176776Y-77137509D01*
X54026978Y-77037417D01*
X53899583Y-76910022D01*
X53799491Y-76760224D01*
X53730547Y-76593778D01*
X53695400Y-76417082D01*
X53695400Y-76236918D01*
X53730547Y-76060222D01*
X53799491Y-75893776D01*
X53899583Y-75743978D01*
X54026978Y-75616583D01*
X54176776Y-75516491D01*
X54343222Y-75447547D01*
X54519918Y-75412400D01*
X54700082Y-75412400D01*
X54876778Y-75447547D01*
G37*
G36*
X54876778Y-72907547D02*
G01*
X55043224Y-72976491D01*
X55193022Y-73076583D01*
X55320417Y-73203978D01*
X55420509Y-73353776D01*
X55489453Y-73520222D01*
X55524600Y-73696918D01*
X55524600Y-73877082D01*
X55489453Y-74053778D01*
X55420509Y-74220224D01*
X55320417Y-74370022D01*
X55193022Y-74497417D01*
X55043224Y-74597509D01*
X54876778Y-74666453D01*
X54700082Y-74701600D01*
X54519918Y-74701600D01*
X54343222Y-74666453D01*
X54176776Y-74597509D01*
X54026978Y-74497417D01*
X53899583Y-74370022D01*
X53799491Y-74220224D01*
X53730547Y-74053778D01*
X53695400Y-73877082D01*
X53695400Y-73696918D01*
X53730547Y-73520222D01*
X53799491Y-73353776D01*
X53899583Y-73203978D01*
X54026978Y-73076583D01*
X54176776Y-72976491D01*
X54343222Y-72907547D01*
X54519918Y-72872400D01*
X54700082Y-72872400D01*
X54876778Y-72907547D01*
G37*
G36*
X58064600Y-74701600D02*
G01*
X56235400Y-74701600D01*
X56235400Y-72872400D01*
X58064600Y-72872400D01*
X58064600Y-74701600D01*
G37*
G36*
X6452890Y-72613017D02*
G01*
X6571364Y-72662091D01*
X6677988Y-72733335D01*
X6768665Y-72824012D01*
X6839909Y-72930636D01*
X6888983Y-73049110D01*
X6914000Y-73174882D01*
X6914000Y-73303118D01*
X6888983Y-73428890D01*
X6839909Y-73547364D01*
X6768665Y-73653988D01*
X6677988Y-73744665D01*
X6571364Y-73815909D01*
X6571363Y-73815910D01*
X6571362Y-73815910D01*
X6452890Y-73864983D01*
X6327119Y-73890000D01*
X6198881Y-73890000D01*
X6073110Y-73864983D01*
X5954638Y-73815910D01*
X5954637Y-73815910D01*
X5954636Y-73815909D01*
X5848012Y-73744665D01*
X5757335Y-73653988D01*
X5686091Y-73547364D01*
X5637017Y-73428890D01*
X5612000Y-73303118D01*
X5612000Y-73174882D01*
X5637017Y-73049110D01*
X5686091Y-72930636D01*
X5757335Y-72824012D01*
X5848012Y-72733335D01*
X5954636Y-72662091D01*
X6073110Y-72613017D01*
X6198881Y-72588000D01*
X6327119Y-72588000D01*
X6452890Y-72613017D01*
G37*
G36*
X3982059Y-70016860D02*
G01*
X4118732Y-70073472D01*
X4241735Y-70155660D01*
X4346340Y-70260265D01*
X4428528Y-70383268D01*
X4485140Y-70519941D01*
X4514000Y-70665033D01*
X4514000Y-70812967D01*
X4485140Y-70958059D01*
X4428528Y-71094732D01*
X4346340Y-71217735D01*
X4241735Y-71322340D01*
X4118732Y-71404528D01*
X4118731Y-71404529D01*
X4118730Y-71404529D01*
X3982059Y-71461140D01*
X3836968Y-71490000D01*
X3689032Y-71490000D01*
X3543941Y-71461140D01*
X3407270Y-71404529D01*
X3407269Y-71404529D01*
X3407268Y-71404528D01*
X3284265Y-71322340D01*
X3179660Y-71217735D01*
X3097472Y-71094732D01*
X3040860Y-70958059D01*
X3012000Y-70812967D01*
X3012000Y-70665033D01*
X3040860Y-70519941D01*
X3097472Y-70383268D01*
X3179660Y-70260265D01*
X3284265Y-70155660D01*
X3407268Y-70073472D01*
X3543941Y-70016860D01*
X3689032Y-69988000D01*
X3836968Y-69988000D01*
X3982059Y-70016860D01*
G37*
G36*
X9514000Y-71490000D02*
G01*
X8012000Y-71490000D01*
X8012000Y-69988000D01*
X9514000Y-69988000D01*
X9514000Y-71490000D01*
G37*
G36*
X8982059Y-67516860D02*
G01*
X9118732Y-67573472D01*
X9241735Y-67655660D01*
X9346340Y-67760265D01*
X9428528Y-67883268D01*
X9485140Y-68019941D01*
X9514000Y-68165033D01*
X9514000Y-68312967D01*
X9485140Y-68458059D01*
X9428528Y-68594732D01*
X9346340Y-68717735D01*
X9241735Y-68822340D01*
X9118732Y-68904528D01*
X9118731Y-68904529D01*
X9118730Y-68904529D01*
X8982059Y-68961140D01*
X8836968Y-68990000D01*
X8689032Y-68990000D01*
X8543941Y-68961140D01*
X8407270Y-68904529D01*
X8407269Y-68904529D01*
X8407268Y-68904528D01*
X8284265Y-68822340D01*
X8179660Y-68717735D01*
X8097472Y-68594732D01*
X8040860Y-68458059D01*
X8012000Y-68312967D01*
X8012000Y-68165033D01*
X8040860Y-68019941D01*
X8097472Y-67883268D01*
X8179660Y-67760265D01*
X8284265Y-67655660D01*
X8407268Y-67573472D01*
X8543941Y-67516860D01*
X8689032Y-67488000D01*
X8836968Y-67488000D01*
X8982059Y-67516860D01*
G37*
G36*
X3982059Y-67516860D02*
G01*
X4118732Y-67573472D01*
X4241735Y-67655660D01*
X4346340Y-67760265D01*
X4428528Y-67883268D01*
X4485140Y-68019941D01*
X4514000Y-68165033D01*
X4514000Y-68312967D01*
X4485140Y-68458059D01*
X4428528Y-68594732D01*
X4346340Y-68717735D01*
X4241735Y-68822340D01*
X4118732Y-68904528D01*
X4118731Y-68904529D01*
X4118730Y-68904529D01*
X3982059Y-68961140D01*
X3836968Y-68990000D01*
X3689032Y-68990000D01*
X3543941Y-68961140D01*
X3407270Y-68904529D01*
X3407269Y-68904529D01*
X3407268Y-68904528D01*
X3284265Y-68822340D01*
X3179660Y-68717735D01*
X3097472Y-68594732D01*
X3040860Y-68458059D01*
X3012000Y-68312967D01*
X3012000Y-68165033D01*
X3040860Y-68019941D01*
X3097472Y-67883268D01*
X3179660Y-67760265D01*
X3284265Y-67655660D01*
X3407268Y-67573472D01*
X3543941Y-67516860D01*
X3689032Y-67488000D01*
X3836968Y-67488000D01*
X3982059Y-67516860D01*
G37*
G36*
X3982059Y-65016860D02*
G01*
X4118732Y-65073472D01*
X4241735Y-65155660D01*
X4346340Y-65260265D01*
X4428528Y-65383268D01*
X4485140Y-65519941D01*
X4514000Y-65665033D01*
X4514000Y-65812967D01*
X4485140Y-65958059D01*
X4428528Y-66094732D01*
X4346340Y-66217735D01*
X4241735Y-66322340D01*
X4118732Y-66404528D01*
X4118731Y-66404529D01*
X4118730Y-66404529D01*
X3982059Y-66461140D01*
X3836968Y-66490000D01*
X3689032Y-66490000D01*
X3543941Y-66461140D01*
X3407270Y-66404529D01*
X3407269Y-66404529D01*
X3407268Y-66404528D01*
X3284265Y-66322340D01*
X3179660Y-66217735D01*
X3097472Y-66094732D01*
X3040860Y-65958059D01*
X3012000Y-65812967D01*
X3012000Y-65665033D01*
X3040860Y-65519941D01*
X3097472Y-65383268D01*
X3179660Y-65260265D01*
X3284265Y-65155660D01*
X3407268Y-65073472D01*
X3543941Y-65016860D01*
X3689032Y-64988000D01*
X3836968Y-64988000D01*
X3982059Y-65016860D01*
G37*
G36*
X8982059Y-65016860D02*
G01*
X9118732Y-65073472D01*
X9241735Y-65155660D01*
X9346340Y-65260265D01*
X9428528Y-65383268D01*
X9485140Y-65519941D01*
X9514000Y-65665033D01*
X9514000Y-65812967D01*
X9485140Y-65958059D01*
X9428528Y-66094732D01*
X9346340Y-66217735D01*
X9241735Y-66322340D01*
X9118732Y-66404528D01*
X9118731Y-66404529D01*
X9118730Y-66404529D01*
X8982059Y-66461140D01*
X8836968Y-66490000D01*
X8689032Y-66490000D01*
X8543941Y-66461140D01*
X8407270Y-66404529D01*
X8407269Y-66404529D01*
X8407268Y-66404528D01*
X8284265Y-66322340D01*
X8179660Y-66217735D01*
X8097472Y-66094732D01*
X8040860Y-65958059D01*
X8012000Y-65812967D01*
X8012000Y-65665033D01*
X8040860Y-65519941D01*
X8097472Y-65383268D01*
X8179660Y-65260265D01*
X8284265Y-65155660D01*
X8407268Y-65073472D01*
X8543941Y-65016860D01*
X8689032Y-64988000D01*
X8836968Y-64988000D01*
X8982059Y-65016860D01*
G37*
G36*
X6452890Y-62613017D02*
G01*
X6571364Y-62662091D01*
X6677988Y-62733335D01*
X6768665Y-62824012D01*
X6839909Y-62930636D01*
X6888983Y-63049110D01*
X6914000Y-63174882D01*
X6914000Y-63303118D01*
X6888983Y-63428890D01*
X6839909Y-63547364D01*
X6768665Y-63653988D01*
X6677988Y-63744665D01*
X6571364Y-63815909D01*
X6571363Y-63815910D01*
X6571362Y-63815910D01*
X6452890Y-63864983D01*
X6327119Y-63890000D01*
X6198881Y-63890000D01*
X6073110Y-63864983D01*
X5954638Y-63815910D01*
X5954637Y-63815910D01*
X5954636Y-63815909D01*
X5848012Y-63744665D01*
X5757335Y-63653988D01*
X5686091Y-63547364D01*
X5637017Y-63428890D01*
X5612000Y-63303118D01*
X5612000Y-63174882D01*
X5637017Y-63049110D01*
X5686091Y-62930636D01*
X5757335Y-62824012D01*
X5848012Y-62733335D01*
X5954636Y-62662091D01*
X6073110Y-62613017D01*
X6198881Y-62588000D01*
X6327119Y-62588000D01*
X6452890Y-62613017D01*
G37*
G36*
X2348000Y-60260000D02*
G01*
X446000Y-60260000D01*
X446000Y-58358000D01*
X2348000Y-58358000D01*
X2348000Y-60260000D01*
G37*
G36*
X4214395Y-58394546D02*
G01*
X4387466Y-58466234D01*
X4387467Y-58466235D01*
X4543227Y-58570310D01*
X4675690Y-58702773D01*
X4675691Y-58702775D01*
X4779766Y-58858534D01*
X4851454Y-59031605D01*
X4888000Y-59215333D01*
X4888000Y-59402667D01*
X4851454Y-59586395D01*
X4779766Y-59759466D01*
X4779765Y-59759467D01*
X4675690Y-59915227D01*
X4543227Y-60047690D01*
X4464818Y-60100081D01*
X4387466Y-60151766D01*
X4214395Y-60223454D01*
X4030667Y-60260000D01*
X3843333Y-60260000D01*
X3659605Y-60223454D01*
X3486534Y-60151766D01*
X3409182Y-60100081D01*
X3330773Y-60047690D01*
X3198310Y-59915227D01*
X3094235Y-59759467D01*
X3094234Y-59759466D01*
X3022546Y-59586395D01*
X2986000Y-59402667D01*
X2986000Y-59215333D01*
X3022546Y-59031605D01*
X3094234Y-58858534D01*
X3198309Y-58702775D01*
X3198310Y-58702773D01*
X3330773Y-58570310D01*
X3486533Y-58466235D01*
X3486534Y-58466234D01*
X3659605Y-58394546D01*
X3843333Y-58358000D01*
X4030667Y-58358000D01*
X4214395Y-58394546D01*
G37*
G36*
X8927473Y-54349938D02*
G01*
X9055049Y-54402782D01*
X9169859Y-54479495D01*
X9267505Y-54577141D01*
X9344218Y-54691951D01*
X9397062Y-54819527D01*
X9424000Y-54954956D01*
X9424000Y-55093044D01*
X9397062Y-55228473D01*
X9344218Y-55356049D01*
X9267505Y-55470859D01*
X9169859Y-55568505D01*
X9055049Y-55645218D01*
X8927473Y-55698062D01*
X8792044Y-55725000D01*
X8653956Y-55725000D01*
X8518527Y-55698062D01*
X8390951Y-55645218D01*
X8276141Y-55568505D01*
X8178495Y-55470859D01*
X8101782Y-55356049D01*
X8048938Y-55228473D01*
X8022000Y-55093044D01*
X8022000Y-54954956D01*
X8048938Y-54819527D01*
X8101782Y-54691951D01*
X8178495Y-54577141D01*
X8276141Y-54479495D01*
X8390951Y-54402782D01*
X8518527Y-54349938D01*
X8653956Y-54323000D01*
X8792044Y-54323000D01*
X8927473Y-54349938D01*
G37*
G36*
X3927473Y-54349938D02*
G01*
X4055049Y-54402782D01*
X4169859Y-54479495D01*
X4267505Y-54577141D01*
X4344218Y-54691951D01*
X4397062Y-54819527D01*
X4424000Y-54954956D01*
X4424000Y-55093044D01*
X4397062Y-55228473D01*
X4344218Y-55356049D01*
X4267505Y-55470859D01*
X4169859Y-55568505D01*
X4055049Y-55645218D01*
X3927473Y-55698062D01*
X3792044Y-55725000D01*
X3653956Y-55725000D01*
X3518527Y-55698062D01*
X3390951Y-55645218D01*
X3276141Y-55568505D01*
X3178495Y-55470859D01*
X3101782Y-55356049D01*
X3048938Y-55228473D01*
X3022000Y-55093044D01*
X3022000Y-54954956D01*
X3048938Y-54819527D01*
X3101782Y-54691951D01*
X3178495Y-54577141D01*
X3276141Y-54479495D01*
X3390951Y-54402782D01*
X3518527Y-54349938D01*
X3653956Y-54323000D01*
X3792044Y-54323000D01*
X3927473Y-54349938D01*
G37*
G36*
X6427473Y-54349938D02*
G01*
X6555049Y-54402782D01*
X6669859Y-54479495D01*
X6767505Y-54577141D01*
X6844218Y-54691951D01*
X6897062Y-54819527D01*
X6924000Y-54954956D01*
X6924000Y-55093044D01*
X6897062Y-55228473D01*
X6844218Y-55356049D01*
X6767505Y-55470859D01*
X6669859Y-55568505D01*
X6555049Y-55645218D01*
X6427473Y-55698062D01*
X6292044Y-55725000D01*
X6153956Y-55725000D01*
X6018527Y-55698062D01*
X5890951Y-55645218D01*
X5776141Y-55568505D01*
X5678495Y-55470859D01*
X5601782Y-55356049D01*
X5548938Y-55228473D01*
X5522000Y-55093044D01*
X5522000Y-54954956D01*
X5548938Y-54819527D01*
X5601782Y-54691951D01*
X5678495Y-54577141D01*
X5776141Y-54479495D01*
X5890951Y-54402782D01*
X6018527Y-54349938D01*
X6153956Y-54323000D01*
X6292044Y-54323000D01*
X6427473Y-54349938D01*
G37*
G36*
X53806272Y-49559428D02*
G01*
X53992991Y-49636770D01*
X53992993Y-49636771D01*
X54161037Y-49749054D01*
X54303946Y-49891963D01*
X54416229Y-50060007D01*
X54416230Y-50060009D01*
X54493572Y-50246728D01*
X54533000Y-50444947D01*
X54533000Y-50647053D01*
X54493572Y-50845272D01*
X54416230Y-51031991D01*
X54416229Y-51031993D01*
X54303946Y-51200037D01*
X54161037Y-51342946D01*
X53992993Y-51455229D01*
X53992992Y-51455230D01*
X53992991Y-51455230D01*
X53806272Y-51532572D01*
X53608053Y-51572000D01*
X53405947Y-51572000D01*
X53207728Y-51532572D01*
X53021009Y-51455230D01*
X53021008Y-51455230D01*
X53021007Y-51455229D01*
X52852963Y-51342946D01*
X52710054Y-51200037D01*
X52597771Y-51031993D01*
X52597770Y-51031991D01*
X52520428Y-50845272D01*
X52481000Y-50647053D01*
X52481000Y-50444947D01*
X52520428Y-50246728D01*
X52597770Y-50060009D01*
X52597771Y-50060007D01*
X52710054Y-49891963D01*
X52852963Y-49749054D01*
X53021007Y-49636771D01*
X53021009Y-49636770D01*
X53207728Y-49559428D01*
X53405947Y-49520000D01*
X53608053Y-49520000D01*
X53806272Y-49559428D01*
G37*
G36*
X26922272Y-49559428D02*
G01*
X27108991Y-49636770D01*
X27108993Y-49636771D01*
X27277037Y-49749054D01*
X27419946Y-49891963D01*
X27532229Y-50060007D01*
X27532230Y-50060009D01*
X27609572Y-50246728D01*
X27649000Y-50444947D01*
X27649000Y-50647053D01*
X27609572Y-50845272D01*
X27532230Y-51031991D01*
X27532229Y-51031993D01*
X27419946Y-51200037D01*
X27277037Y-51342946D01*
X27108993Y-51455229D01*
X27108992Y-51455230D01*
X27108991Y-51455230D01*
X26922272Y-51532572D01*
X26724053Y-51572000D01*
X26521947Y-51572000D01*
X26323728Y-51532572D01*
X26137009Y-51455230D01*
X26137008Y-51455230D01*
X26137007Y-51455229D01*
X25968963Y-51342946D01*
X25826054Y-51200037D01*
X25713771Y-51031993D01*
X25713770Y-51031991D01*
X25636428Y-50845272D01*
X25597000Y-50647053D01*
X25597000Y-50444947D01*
X25636428Y-50246728D01*
X25713770Y-50060009D01*
X25713771Y-50060007D01*
X25826054Y-49891963D01*
X25968963Y-49749054D01*
X26137007Y-49636771D01*
X26137009Y-49636770D01*
X26323728Y-49559428D01*
X26521947Y-49520000D01*
X26724053Y-49520000D01*
X26922272Y-49559428D01*
G37*
G36*
X17230272Y-49559428D02*
G01*
X17416991Y-49636770D01*
X17416993Y-49636771D01*
X17585037Y-49749054D01*
X17727946Y-49891963D01*
X17840229Y-50060007D01*
X17840230Y-50060009D01*
X17917572Y-50246728D01*
X17957000Y-50444947D01*
X17957000Y-50647053D01*
X17917572Y-50845272D01*
X17840230Y-51031991D01*
X17840229Y-51031993D01*
X17727946Y-51200037D01*
X17585037Y-51342946D01*
X17416993Y-51455229D01*
X17416992Y-51455230D01*
X17416991Y-51455230D01*
X17230272Y-51532572D01*
X17032053Y-51572000D01*
X16829947Y-51572000D01*
X16631728Y-51532572D01*
X16445009Y-51455230D01*
X16445008Y-51455230D01*
X16445007Y-51455229D01*
X16276963Y-51342946D01*
X16134054Y-51200037D01*
X16021771Y-51031993D01*
X16021770Y-51031991D01*
X15944428Y-50845272D01*
X15905000Y-50647053D01*
X15905000Y-50444947D01*
X15944428Y-50246728D01*
X16021770Y-50060009D01*
X16021771Y-50060007D01*
X16134054Y-49891963D01*
X16276963Y-49749054D01*
X16445007Y-49636771D01*
X16445009Y-49636770D01*
X16631728Y-49559428D01*
X16829947Y-49520000D01*
X17032053Y-49520000D01*
X17230272Y-49559428D01*
G37*
G36*
X29422272Y-49559428D02*
G01*
X29608991Y-49636770D01*
X29608993Y-49636771D01*
X29777037Y-49749054D01*
X29919946Y-49891963D01*
X30032229Y-50060007D01*
X30032230Y-50060009D01*
X30109572Y-50246728D01*
X30149000Y-50444947D01*
X30149000Y-50647053D01*
X30109572Y-50845272D01*
X30032230Y-51031991D01*
X30032229Y-51031993D01*
X29919946Y-51200037D01*
X29777037Y-51342946D01*
X29608993Y-51455229D01*
X29608992Y-51455230D01*
X29608991Y-51455230D01*
X29422272Y-51532572D01*
X29224053Y-51572000D01*
X29021947Y-51572000D01*
X28823728Y-51532572D01*
X28637009Y-51455230D01*
X28637008Y-51455230D01*
X28637007Y-51455229D01*
X28468963Y-51342946D01*
X28326054Y-51200037D01*
X28213771Y-51031993D01*
X28213770Y-51031991D01*
X28136428Y-50845272D01*
X28097000Y-50647053D01*
X28097000Y-50444947D01*
X28136428Y-50246728D01*
X28213770Y-50060009D01*
X28213771Y-50060007D01*
X28326054Y-49891963D01*
X28468963Y-49749054D01*
X28637007Y-49636771D01*
X28637009Y-49636770D01*
X28823728Y-49559428D01*
X29021947Y-49520000D01*
X29224053Y-49520000D01*
X29422272Y-49559428D01*
G37*
G36*
X31922272Y-49559428D02*
G01*
X32108991Y-49636770D01*
X32108993Y-49636771D01*
X32277037Y-49749054D01*
X32419946Y-49891963D01*
X32532229Y-50060007D01*
X32532230Y-50060009D01*
X32609572Y-50246728D01*
X32649000Y-50444947D01*
X32649000Y-50647053D01*
X32609572Y-50845272D01*
X32532230Y-51031991D01*
X32532229Y-51031993D01*
X32419946Y-51200037D01*
X32277037Y-51342946D01*
X32108993Y-51455229D01*
X32108992Y-51455230D01*
X32108991Y-51455230D01*
X31922272Y-51532572D01*
X31724053Y-51572000D01*
X31521947Y-51572000D01*
X31323728Y-51532572D01*
X31137009Y-51455230D01*
X31137008Y-51455230D01*
X31137007Y-51455229D01*
X30968963Y-51342946D01*
X30826054Y-51200037D01*
X30713771Y-51031993D01*
X30713770Y-51031991D01*
X30636428Y-50845272D01*
X30597000Y-50647053D01*
X30597000Y-50444947D01*
X30636428Y-50246728D01*
X30713770Y-50060009D01*
X30713771Y-50060007D01*
X30826054Y-49891963D01*
X30968963Y-49749054D01*
X31137007Y-49636771D01*
X31137009Y-49636770D01*
X31323728Y-49559428D01*
X31521947Y-49520000D01*
X31724053Y-49520000D01*
X31922272Y-49559428D01*
G37*
G36*
X22230272Y-49559428D02*
G01*
X22416991Y-49636770D01*
X22416993Y-49636771D01*
X22585037Y-49749054D01*
X22727946Y-49891963D01*
X22840229Y-50060007D01*
X22840230Y-50060009D01*
X22917572Y-50246728D01*
X22957000Y-50444947D01*
X22957000Y-50647053D01*
X22917572Y-50845272D01*
X22840230Y-51031991D01*
X22840229Y-51031993D01*
X22727946Y-51200037D01*
X22585037Y-51342946D01*
X22416993Y-51455229D01*
X22416992Y-51455230D01*
X22416991Y-51455230D01*
X22230272Y-51532572D01*
X22032053Y-51572000D01*
X21829947Y-51572000D01*
X21631728Y-51532572D01*
X21445009Y-51455230D01*
X21445008Y-51455230D01*
X21445007Y-51455229D01*
X21276963Y-51342946D01*
X21134054Y-51200037D01*
X21021771Y-51031993D01*
X21021770Y-51031991D01*
X20944428Y-50845272D01*
X20905000Y-50647053D01*
X20905000Y-50444947D01*
X20944428Y-50246728D01*
X21021770Y-50060009D01*
X21021771Y-50060007D01*
X21134054Y-49891963D01*
X21276963Y-49749054D01*
X21445007Y-49636771D01*
X21445009Y-49636770D01*
X21631728Y-49559428D01*
X21829947Y-49520000D01*
X22032053Y-49520000D01*
X22230272Y-49559428D01*
G37*
G36*
X56306272Y-49559428D02*
G01*
X56492991Y-49636770D01*
X56492993Y-49636771D01*
X56661037Y-49749054D01*
X56803946Y-49891963D01*
X56916229Y-50060007D01*
X56916230Y-50060009D01*
X56993572Y-50246728D01*
X57033000Y-50444947D01*
X57033000Y-50647053D01*
X56993572Y-50845272D01*
X56916230Y-51031991D01*
X56916229Y-51031993D01*
X56803946Y-51200037D01*
X56661037Y-51342946D01*
X56492993Y-51455229D01*
X56492992Y-51455230D01*
X56492991Y-51455230D01*
X56306272Y-51532572D01*
X56108053Y-51572000D01*
X55905947Y-51572000D01*
X55707728Y-51532572D01*
X55521009Y-51455230D01*
X55521008Y-51455230D01*
X55521007Y-51455229D01*
X55352963Y-51342946D01*
X55210054Y-51200037D01*
X55097771Y-51031993D01*
X55097770Y-51031991D01*
X55020428Y-50845272D01*
X54981000Y-50647053D01*
X54981000Y-50444947D01*
X55020428Y-50246728D01*
X55097770Y-50060009D01*
X55097771Y-50060007D01*
X55210054Y-49891963D01*
X55352963Y-49749054D01*
X55521007Y-49636771D01*
X55521009Y-49636770D01*
X55707728Y-49559428D01*
X55905947Y-49520000D01*
X56108053Y-49520000D01*
X56306272Y-49559428D01*
G37*
G36*
X58806272Y-49559428D02*
G01*
X58992991Y-49636770D01*
X58992993Y-49636771D01*
X59161037Y-49749054D01*
X59303946Y-49891963D01*
X59416229Y-50060007D01*
X59416230Y-50060009D01*
X59493572Y-50246728D01*
X59533000Y-50444947D01*
X59533000Y-50647053D01*
X59493572Y-50845272D01*
X59416230Y-51031991D01*
X59416229Y-51031993D01*
X59303946Y-51200037D01*
X59161037Y-51342946D01*
X58992993Y-51455229D01*
X58992992Y-51455230D01*
X58992991Y-51455230D01*
X58806272Y-51532572D01*
X58608053Y-51572000D01*
X58405947Y-51572000D01*
X58207728Y-51532572D01*
X58021009Y-51455230D01*
X58021008Y-51455230D01*
X58021007Y-51455229D01*
X57852963Y-51342946D01*
X57710054Y-51200037D01*
X57597771Y-51031993D01*
X57597770Y-51031991D01*
X57520428Y-50845272D01*
X57481000Y-50647053D01*
X57481000Y-50444947D01*
X57520428Y-50246728D01*
X57597770Y-50060009D01*
X57597771Y-50060007D01*
X57710054Y-49891963D01*
X57852963Y-49749054D01*
X58021007Y-49636771D01*
X58021009Y-49636770D01*
X58207728Y-49559428D01*
X58405947Y-49520000D01*
X58608053Y-49520000D01*
X58806272Y-49559428D01*
G37*
G36*
X41577272Y-49559428D02*
G01*
X41763991Y-49636770D01*
X41763993Y-49636771D01*
X41932037Y-49749054D01*
X42074946Y-49891963D01*
X42187229Y-50060007D01*
X42187230Y-50060009D01*
X42264572Y-50246728D01*
X42304000Y-50444947D01*
X42304000Y-50647053D01*
X42264572Y-50845272D01*
X42187230Y-51031991D01*
X42187229Y-51031993D01*
X42074946Y-51200037D01*
X41932037Y-51342946D01*
X41763993Y-51455229D01*
X41763992Y-51455230D01*
X41763991Y-51455230D01*
X41577272Y-51532572D01*
X41379053Y-51572000D01*
X41176947Y-51572000D01*
X40978728Y-51532572D01*
X40792009Y-51455230D01*
X40792008Y-51455230D01*
X40792007Y-51455229D01*
X40623963Y-51342946D01*
X40481054Y-51200037D01*
X40368771Y-51031993D01*
X40368770Y-51031991D01*
X40291428Y-50845272D01*
X40252000Y-50647053D01*
X40252000Y-50444947D01*
X40291428Y-50246728D01*
X40368770Y-50060009D01*
X40368771Y-50060007D01*
X40481054Y-49891963D01*
X40623963Y-49749054D01*
X40792007Y-49636771D01*
X40792009Y-49636770D01*
X40978728Y-49559428D01*
X41176947Y-49520000D01*
X41379053Y-49520000D01*
X41577272Y-49559428D01*
G37*
G36*
X39077272Y-49559428D02*
G01*
X39263991Y-49636770D01*
X39263993Y-49636771D01*
X39432037Y-49749054D01*
X39574946Y-49891963D01*
X39687229Y-50060007D01*
X39687230Y-50060009D01*
X39764572Y-50246728D01*
X39804000Y-50444947D01*
X39804000Y-50647053D01*
X39764572Y-50845272D01*
X39687230Y-51031991D01*
X39687229Y-51031993D01*
X39574946Y-51200037D01*
X39432037Y-51342946D01*
X39263993Y-51455229D01*
X39263992Y-51455230D01*
X39263991Y-51455230D01*
X39077272Y-51532572D01*
X38879053Y-51572000D01*
X38676947Y-51572000D01*
X38478728Y-51532572D01*
X38292009Y-51455230D01*
X38292008Y-51455230D01*
X38292007Y-51455229D01*
X38123963Y-51342946D01*
X37981054Y-51200037D01*
X37868771Y-51031993D01*
X37868770Y-51031991D01*
X37791428Y-50845272D01*
X37752000Y-50647053D01*
X37752000Y-50444947D01*
X37791428Y-50246728D01*
X37868770Y-50060009D01*
X37868771Y-50060007D01*
X37981054Y-49891963D01*
X38123963Y-49749054D01*
X38292007Y-49636771D01*
X38292009Y-49636770D01*
X38478728Y-49559428D01*
X38676947Y-49520000D01*
X38879053Y-49520000D01*
X39077272Y-49559428D01*
G37*
G36*
X14730272Y-49559428D02*
G01*
X14916991Y-49636770D01*
X14916993Y-49636771D01*
X15085037Y-49749054D01*
X15227946Y-49891963D01*
X15340229Y-50060007D01*
X15340230Y-50060009D01*
X15417572Y-50246728D01*
X15457000Y-50444947D01*
X15457000Y-50647053D01*
X15417572Y-50845272D01*
X15340230Y-51031991D01*
X15340229Y-51031993D01*
X15227946Y-51200037D01*
X15085037Y-51342946D01*
X14916993Y-51455229D01*
X14916992Y-51455230D01*
X14916991Y-51455230D01*
X14730272Y-51532572D01*
X14532053Y-51572000D01*
X14329947Y-51572000D01*
X14131728Y-51532572D01*
X13945009Y-51455230D01*
X13945008Y-51455230D01*
X13945007Y-51455229D01*
X13776963Y-51342946D01*
X13634054Y-51200037D01*
X13521771Y-51031993D01*
X13521770Y-51031991D01*
X13444428Y-50845272D01*
X13405000Y-50647053D01*
X13405000Y-50444947D01*
X13444428Y-50246728D01*
X13521770Y-50060009D01*
X13521771Y-50060007D01*
X13634054Y-49891963D01*
X13776963Y-49749054D01*
X13945007Y-49636771D01*
X13945009Y-49636770D01*
X14131728Y-49559428D01*
X14329947Y-49520000D01*
X14532053Y-49520000D01*
X14730272Y-49559428D01*
G37*
G36*
X46577272Y-49559428D02*
G01*
X46763991Y-49636770D01*
X46763993Y-49636771D01*
X46932037Y-49749054D01*
X47074946Y-49891963D01*
X47187229Y-50060007D01*
X47187230Y-50060009D01*
X47264572Y-50246728D01*
X47304000Y-50444947D01*
X47304000Y-50647053D01*
X47264572Y-50845272D01*
X47187230Y-51031991D01*
X47187229Y-51031993D01*
X47074946Y-51200037D01*
X46932037Y-51342946D01*
X46763993Y-51455229D01*
X46763992Y-51455230D01*
X46763991Y-51455230D01*
X46577272Y-51532572D01*
X46379053Y-51572000D01*
X46176947Y-51572000D01*
X45978728Y-51532572D01*
X45792009Y-51455230D01*
X45792008Y-51455230D01*
X45792007Y-51455229D01*
X45623963Y-51342946D01*
X45481054Y-51200037D01*
X45368771Y-51031993D01*
X45368770Y-51031991D01*
X45291428Y-50845272D01*
X45252000Y-50647053D01*
X45252000Y-50444947D01*
X45291428Y-50246728D01*
X45368770Y-50060009D01*
X45368771Y-50060007D01*
X45481054Y-49891963D01*
X45623963Y-49749054D01*
X45792007Y-49636771D01*
X45792009Y-49636770D01*
X45978728Y-49559428D01*
X46176947Y-49520000D01*
X46379053Y-49520000D01*
X46577272Y-49559428D01*
G37*
G36*
X44077272Y-49559428D02*
G01*
X44263991Y-49636770D01*
X44263993Y-49636771D01*
X44432037Y-49749054D01*
X44574946Y-49891963D01*
X44687229Y-50060007D01*
X44687230Y-50060009D01*
X44764572Y-50246728D01*
X44804000Y-50444947D01*
X44804000Y-50647053D01*
X44764572Y-50845272D01*
X44687230Y-51031991D01*
X44687229Y-51031993D01*
X44574946Y-51200037D01*
X44432037Y-51342946D01*
X44263993Y-51455229D01*
X44263992Y-51455230D01*
X44263991Y-51455230D01*
X44077272Y-51532572D01*
X43879053Y-51572000D01*
X43676947Y-51572000D01*
X43478728Y-51532572D01*
X43292009Y-51455230D01*
X43292008Y-51455230D01*
X43292007Y-51455229D01*
X43123963Y-51342946D01*
X42981054Y-51200037D01*
X42868771Y-51031993D01*
X42868770Y-51031991D01*
X42791428Y-50845272D01*
X42752000Y-50647053D01*
X42752000Y-50444947D01*
X42791428Y-50246728D01*
X42868770Y-50060009D01*
X42868771Y-50060007D01*
X42981054Y-49891963D01*
X43123963Y-49749054D01*
X43292007Y-49636771D01*
X43292009Y-49636770D01*
X43478728Y-49559428D01*
X43676947Y-49520000D01*
X43879053Y-49520000D01*
X44077272Y-49559428D01*
G37*
G36*
X34422272Y-49559428D02*
G01*
X34608991Y-49636770D01*
X34608993Y-49636771D01*
X34777037Y-49749054D01*
X34919946Y-49891963D01*
X35032229Y-50060007D01*
X35032230Y-50060009D01*
X35109572Y-50246728D01*
X35149000Y-50444947D01*
X35149000Y-50647053D01*
X35109572Y-50845272D01*
X35032230Y-51031991D01*
X35032229Y-51031993D01*
X34919946Y-51200037D01*
X34777037Y-51342946D01*
X34608993Y-51455229D01*
X34608992Y-51455230D01*
X34608991Y-51455230D01*
X34422272Y-51532572D01*
X34224053Y-51572000D01*
X34021947Y-51572000D01*
X33823728Y-51532572D01*
X33637009Y-51455230D01*
X33637008Y-51455230D01*
X33637007Y-51455229D01*
X33468963Y-51342946D01*
X33326054Y-51200037D01*
X33213771Y-51031993D01*
X33213770Y-51031991D01*
X33136428Y-50845272D01*
X33097000Y-50647053D01*
X33097000Y-50444947D01*
X33136428Y-50246728D01*
X33213770Y-50060009D01*
X33213771Y-50060007D01*
X33326054Y-49891963D01*
X33468963Y-49749054D01*
X33637007Y-49636771D01*
X33637009Y-49636770D01*
X33823728Y-49559428D01*
X34021947Y-49520000D01*
X34224053Y-49520000D01*
X34422272Y-49559428D01*
G37*
G36*
X51306272Y-49559428D02*
G01*
X51492991Y-49636770D01*
X51492993Y-49636771D01*
X51661037Y-49749054D01*
X51803946Y-49891963D01*
X51916229Y-50060007D01*
X51916230Y-50060009D01*
X51993572Y-50246728D01*
X52033000Y-50444947D01*
X52033000Y-50647053D01*
X51993572Y-50845272D01*
X51916230Y-51031991D01*
X51916229Y-51031993D01*
X51803946Y-51200037D01*
X51661037Y-51342946D01*
X51492993Y-51455229D01*
X51492992Y-51455230D01*
X51492991Y-51455230D01*
X51306272Y-51532572D01*
X51108053Y-51572000D01*
X50905947Y-51572000D01*
X50707728Y-51532572D01*
X50521009Y-51455230D01*
X50521008Y-51455230D01*
X50521007Y-51455229D01*
X50352963Y-51342946D01*
X50210054Y-51200037D01*
X50097771Y-51031993D01*
X50097770Y-51031991D01*
X50020428Y-50845272D01*
X49981000Y-50647053D01*
X49981000Y-50444947D01*
X50020428Y-50246728D01*
X50097770Y-50060009D01*
X50097771Y-50060007D01*
X50210054Y-49891963D01*
X50352963Y-49749054D01*
X50521007Y-49636771D01*
X50521009Y-49636770D01*
X50707728Y-49559428D01*
X50905947Y-49520000D01*
X51108053Y-49520000D01*
X51306272Y-49559428D01*
G37*
G36*
X19730272Y-49559428D02*
G01*
X19916991Y-49636770D01*
X19916993Y-49636771D01*
X20085037Y-49749054D01*
X20227946Y-49891963D01*
X20340229Y-50060007D01*
X20340230Y-50060009D01*
X20417572Y-50246728D01*
X20457000Y-50444947D01*
X20457000Y-50647053D01*
X20417572Y-50845272D01*
X20340230Y-51031991D01*
X20340229Y-51031993D01*
X20227946Y-51200037D01*
X20085037Y-51342946D01*
X19916993Y-51455229D01*
X19916992Y-51455230D01*
X19916991Y-51455230D01*
X19730272Y-51532572D01*
X19532053Y-51572000D01*
X19329947Y-51572000D01*
X19131728Y-51532572D01*
X18945009Y-51455230D01*
X18945008Y-51455230D01*
X18945007Y-51455229D01*
X18776963Y-51342946D01*
X18634054Y-51200037D01*
X18521771Y-51031993D01*
X18521770Y-51031991D01*
X18444428Y-50845272D01*
X18405000Y-50647053D01*
X18405000Y-50444947D01*
X18444428Y-50246728D01*
X18521770Y-50060009D01*
X18521771Y-50060007D01*
X18634054Y-49891963D01*
X18776963Y-49749054D01*
X18945007Y-49636771D01*
X18945009Y-49636770D01*
X19131728Y-49559428D01*
X19329947Y-49520000D01*
X19532053Y-49520000D01*
X19730272Y-49559428D01*
G37*
G36*
X3927473Y-48949938D02*
G01*
X4055049Y-49002782D01*
X4169859Y-49079495D01*
X4267505Y-49177141D01*
X4344218Y-49291951D01*
X4397062Y-49419527D01*
X4424000Y-49554956D01*
X4424000Y-49693044D01*
X4397062Y-49828473D01*
X4344218Y-49956049D01*
X4267505Y-50070859D01*
X4169859Y-50168505D01*
X4055049Y-50245218D01*
X3927473Y-50298062D01*
X3792044Y-50325000D01*
X3653956Y-50325000D01*
X3518527Y-50298062D01*
X3390951Y-50245218D01*
X3276141Y-50168505D01*
X3178495Y-50070859D01*
X3101782Y-49956049D01*
X3048938Y-49828473D01*
X3022000Y-49693044D01*
X3022000Y-49554956D01*
X3048938Y-49419527D01*
X3101782Y-49291951D01*
X3178495Y-49177141D01*
X3276141Y-49079495D01*
X3390951Y-49002782D01*
X3518527Y-48949938D01*
X3653956Y-48923000D01*
X3792044Y-48923000D01*
X3927473Y-48949938D01*
G37*
G36*
X8927473Y-48949938D02*
G01*
X9055049Y-49002782D01*
X9169859Y-49079495D01*
X9267505Y-49177141D01*
X9344218Y-49291951D01*
X9397062Y-49419527D01*
X9424000Y-49554956D01*
X9424000Y-49693044D01*
X9397062Y-49828473D01*
X9344218Y-49956049D01*
X9267505Y-50070859D01*
X9169859Y-50168505D01*
X9055049Y-50245218D01*
X8927473Y-50298062D01*
X8792044Y-50325000D01*
X8653956Y-50325000D01*
X8518527Y-50298062D01*
X8390951Y-50245218D01*
X8276141Y-50168505D01*
X8178495Y-50070859D01*
X8101782Y-49956049D01*
X8048938Y-49828473D01*
X8022000Y-49693044D01*
X8022000Y-49554956D01*
X8048938Y-49419527D01*
X8101782Y-49291951D01*
X8178495Y-49177141D01*
X8276141Y-49079495D01*
X8390951Y-49002782D01*
X8518527Y-48949938D01*
X8653956Y-48923000D01*
X8792044Y-48923000D01*
X8927473Y-48949938D01*
G37*
G36*
X6427473Y-48949938D02*
G01*
X6555049Y-49002782D01*
X6669859Y-49079495D01*
X6767505Y-49177141D01*
X6844218Y-49291951D01*
X6897062Y-49419527D01*
X6924000Y-49554956D01*
X6924000Y-49693044D01*
X6897062Y-49828473D01*
X6844218Y-49956049D01*
X6767505Y-50070859D01*
X6669859Y-50168505D01*
X6555049Y-50245218D01*
X6427473Y-50298062D01*
X6292044Y-50325000D01*
X6153956Y-50325000D01*
X6018527Y-50298062D01*
X5890951Y-50245218D01*
X5776141Y-50168505D01*
X5678495Y-50070859D01*
X5601782Y-49956049D01*
X5548938Y-49828473D01*
X5522000Y-49693044D01*
X5522000Y-49554956D01*
X5548938Y-49419527D01*
X5601782Y-49291951D01*
X5678495Y-49177141D01*
X5776141Y-49079495D01*
X5890951Y-49002782D01*
X6018527Y-48949938D01*
X6153956Y-48923000D01*
X6292044Y-48923000D01*
X6427473Y-48949938D01*
G37*
G36*
X9364794Y-43803155D02*
G01*
X9471150Y-43824311D01*
X9671520Y-43907307D01*
X9851844Y-44027795D01*
X10005205Y-44181156D01*
X10125693Y-44361480D01*
X10208689Y-44561851D01*
X10251000Y-44774560D01*
X10251000Y-44991440D01*
X10208689Y-45204149D01*
X10125693Y-45404520D01*
X10005205Y-45584844D01*
X9851844Y-45738205D01*
X9671520Y-45858693D01*
X9571334Y-45900191D01*
X9471150Y-45941689D01*
X9364794Y-45962845D01*
X9258440Y-45984000D01*
X9041560Y-45984000D01*
X8935206Y-45962845D01*
X8828850Y-45941689D01*
X8728666Y-45900191D01*
X8628480Y-45858693D01*
X8448156Y-45738205D01*
X8294795Y-45584844D01*
X8174307Y-45404520D01*
X8091311Y-45204149D01*
X8049000Y-44991440D01*
X8049000Y-44774560D01*
X8091311Y-44561851D01*
X8174307Y-44361480D01*
X8294795Y-44181156D01*
X8448156Y-44027795D01*
X8628480Y-43907307D01*
X8828850Y-43824311D01*
X8935206Y-43803155D01*
X9041560Y-43782000D01*
X9258440Y-43782000D01*
X9364794Y-43803155D01*
G37*
G36*
X31922272Y-41553428D02*
G01*
X32108991Y-41630770D01*
X32108993Y-41630771D01*
X32277037Y-41743054D01*
X32419946Y-41885963D01*
X32532229Y-42054007D01*
X32532230Y-42054009D01*
X32609572Y-42240728D01*
X32649000Y-42438947D01*
X32649000Y-42641053D01*
X32609572Y-42839272D01*
X32532230Y-43025991D01*
X32532229Y-43025993D01*
X32419946Y-43194037D01*
X32277037Y-43336946D01*
X32108993Y-43449229D01*
X32108992Y-43449230D01*
X32108991Y-43449230D01*
X31922272Y-43526572D01*
X31724053Y-43566000D01*
X31521947Y-43566000D01*
X31323728Y-43526572D01*
X31137009Y-43449230D01*
X31137008Y-43449230D01*
X31137007Y-43449229D01*
X30968963Y-43336946D01*
X30826054Y-43194037D01*
X30713771Y-43025993D01*
X30713770Y-43025991D01*
X30636428Y-42839272D01*
X30597000Y-42641053D01*
X30597000Y-42438947D01*
X30636428Y-42240728D01*
X30713770Y-42054009D01*
X30713771Y-42054007D01*
X30826054Y-41885963D01*
X30968963Y-41743054D01*
X31137007Y-41630771D01*
X31137009Y-41630770D01*
X31323728Y-41553428D01*
X31521947Y-41514000D01*
X31724053Y-41514000D01*
X31922272Y-41553428D01*
G37*
G36*
X39114272Y-41553428D02*
G01*
X39300991Y-41630770D01*
X39300993Y-41630771D01*
X39469037Y-41743054D01*
X39611946Y-41885963D01*
X39724229Y-42054007D01*
X39724230Y-42054009D01*
X39801572Y-42240728D01*
X39841000Y-42438947D01*
X39841000Y-42641053D01*
X39801572Y-42839272D01*
X39724230Y-43025991D01*
X39724229Y-43025993D01*
X39611946Y-43194037D01*
X39469037Y-43336946D01*
X39300993Y-43449229D01*
X39300992Y-43449230D01*
X39300991Y-43449230D01*
X39114272Y-43526572D01*
X38916053Y-43566000D01*
X38713947Y-43566000D01*
X38515728Y-43526572D01*
X38329009Y-43449230D01*
X38329008Y-43449230D01*
X38329007Y-43449229D01*
X38160963Y-43336946D01*
X38018054Y-43194037D01*
X37905771Y-43025993D01*
X37905770Y-43025991D01*
X37828428Y-42839272D01*
X37789000Y-42641053D01*
X37789000Y-42438947D01*
X37828428Y-42240728D01*
X37905770Y-42054009D01*
X37905771Y-42054007D01*
X38018054Y-41885963D01*
X38160963Y-41743054D01*
X38329007Y-41630771D01*
X38329009Y-41630770D01*
X38515728Y-41553428D01*
X38713947Y-41514000D01*
X38916053Y-41514000D01*
X39114272Y-41553428D01*
G37*
G36*
X44114272Y-41553428D02*
G01*
X44300991Y-41630770D01*
X44300993Y-41630771D01*
X44469037Y-41743054D01*
X44611946Y-41885963D01*
X44724229Y-42054007D01*
X44724230Y-42054009D01*
X44801572Y-42240728D01*
X44841000Y-42438947D01*
X44841000Y-42641053D01*
X44801572Y-42839272D01*
X44724230Y-43025991D01*
X44724229Y-43025993D01*
X44611946Y-43194037D01*
X44469037Y-43336946D01*
X44300993Y-43449229D01*
X44300992Y-43449230D01*
X44300991Y-43449230D01*
X44114272Y-43526572D01*
X43916053Y-43566000D01*
X43713947Y-43566000D01*
X43515728Y-43526572D01*
X43329009Y-43449230D01*
X43329008Y-43449230D01*
X43329007Y-43449229D01*
X43160963Y-43336946D01*
X43018054Y-43194037D01*
X42905771Y-43025993D01*
X42905770Y-43025991D01*
X42828428Y-42839272D01*
X42789000Y-42641053D01*
X42789000Y-42438947D01*
X42828428Y-42240728D01*
X42905770Y-42054009D01*
X42905771Y-42054007D01*
X43018054Y-41885963D01*
X43160963Y-41743054D01*
X43329007Y-41630771D01*
X43329009Y-41630770D01*
X43515728Y-41553428D01*
X43713947Y-41514000D01*
X43916053Y-41514000D01*
X44114272Y-41553428D01*
G37*
G36*
X51306272Y-41553428D02*
G01*
X51492991Y-41630770D01*
X51492993Y-41630771D01*
X51661037Y-41743054D01*
X51803946Y-41885963D01*
X51916229Y-42054007D01*
X51916230Y-42054009D01*
X51993572Y-42240728D01*
X52033000Y-42438947D01*
X52033000Y-42641053D01*
X51993572Y-42839272D01*
X51916230Y-43025991D01*
X51916229Y-43025993D01*
X51803946Y-43194037D01*
X51661037Y-43336946D01*
X51492993Y-43449229D01*
X51492992Y-43449230D01*
X51492991Y-43449230D01*
X51306272Y-43526572D01*
X51108053Y-43566000D01*
X50905947Y-43566000D01*
X50707728Y-43526572D01*
X50521009Y-43449230D01*
X50521008Y-43449230D01*
X50521007Y-43449229D01*
X50352963Y-43336946D01*
X50210054Y-43194037D01*
X50097771Y-43025993D01*
X50097770Y-43025991D01*
X50020428Y-42839272D01*
X49981000Y-42641053D01*
X49981000Y-42438947D01*
X50020428Y-42240728D01*
X50097770Y-42054009D01*
X50097771Y-42054007D01*
X50210054Y-41885963D01*
X50352963Y-41743054D01*
X50521007Y-41630771D01*
X50521009Y-41630770D01*
X50707728Y-41553428D01*
X50905947Y-41514000D01*
X51108053Y-41514000D01*
X51306272Y-41553428D01*
G37*
G36*
X19730272Y-41553428D02*
G01*
X19916991Y-41630770D01*
X19916993Y-41630771D01*
X20085037Y-41743054D01*
X20227946Y-41885963D01*
X20340229Y-42054007D01*
X20340230Y-42054009D01*
X20417572Y-42240728D01*
X20457000Y-42438947D01*
X20457000Y-42641053D01*
X20417572Y-42839272D01*
X20340230Y-43025991D01*
X20340229Y-43025993D01*
X20227946Y-43194037D01*
X20085037Y-43336946D01*
X19916993Y-43449229D01*
X19916992Y-43449230D01*
X19916991Y-43449230D01*
X19730272Y-43526572D01*
X19532053Y-43566000D01*
X19329947Y-43566000D01*
X19131728Y-43526572D01*
X18945009Y-43449230D01*
X18945008Y-43449230D01*
X18945007Y-43449229D01*
X18776963Y-43336946D01*
X18634054Y-43194037D01*
X18521771Y-43025993D01*
X18521770Y-43025991D01*
X18444428Y-42839272D01*
X18405000Y-42641053D01*
X18405000Y-42438947D01*
X18444428Y-42240728D01*
X18521770Y-42054009D01*
X18521771Y-42054007D01*
X18634054Y-41885963D01*
X18776963Y-41743054D01*
X18945007Y-41630771D01*
X18945009Y-41630770D01*
X19131728Y-41553428D01*
X19329947Y-41514000D01*
X19532053Y-41514000D01*
X19730272Y-41553428D01*
G37*
G36*
X14730272Y-41553428D02*
G01*
X14916991Y-41630770D01*
X14916993Y-41630771D01*
X15085037Y-41743054D01*
X15227946Y-41885963D01*
X15340229Y-42054007D01*
X15340230Y-42054009D01*
X15417572Y-42240728D01*
X15457000Y-42438947D01*
X15457000Y-42641053D01*
X15417572Y-42839272D01*
X15340230Y-43025991D01*
X15340229Y-43025993D01*
X15227946Y-43194037D01*
X15085037Y-43336946D01*
X14916993Y-43449229D01*
X14916992Y-43449230D01*
X14916991Y-43449230D01*
X14730272Y-43526572D01*
X14532053Y-43566000D01*
X14329947Y-43566000D01*
X14131728Y-43526572D01*
X13945009Y-43449230D01*
X13945008Y-43449230D01*
X13945007Y-43449229D01*
X13776963Y-43336946D01*
X13634054Y-43194037D01*
X13521771Y-43025993D01*
X13521770Y-43025991D01*
X13444428Y-42839272D01*
X13405000Y-42641053D01*
X13405000Y-42438947D01*
X13444428Y-42240728D01*
X13521770Y-42054009D01*
X13521771Y-42054007D01*
X13634054Y-41885963D01*
X13776963Y-41743054D01*
X13945007Y-41630771D01*
X13945009Y-41630770D01*
X14131728Y-41553428D01*
X14329947Y-41514000D01*
X14532053Y-41514000D01*
X14730272Y-41553428D01*
G37*
G36*
X26922272Y-41553428D02*
G01*
X27108991Y-41630770D01*
X27108993Y-41630771D01*
X27277037Y-41743054D01*
X27419946Y-41885963D01*
X27532229Y-42054007D01*
X27532230Y-42054009D01*
X27609572Y-42240728D01*
X27649000Y-42438947D01*
X27649000Y-42641053D01*
X27609572Y-42839272D01*
X27532230Y-43025991D01*
X27532229Y-43025993D01*
X27419946Y-43194037D01*
X27277037Y-43336946D01*
X27108993Y-43449229D01*
X27108992Y-43449230D01*
X27108991Y-43449230D01*
X26922272Y-43526572D01*
X26724053Y-43566000D01*
X26521947Y-43566000D01*
X26323728Y-43526572D01*
X26137009Y-43449230D01*
X26137008Y-43449230D01*
X26137007Y-43449229D01*
X25968963Y-43336946D01*
X25826054Y-43194037D01*
X25713771Y-43025993D01*
X25713770Y-43025991D01*
X25636428Y-42839272D01*
X25597000Y-42641053D01*
X25597000Y-42438947D01*
X25636428Y-42240728D01*
X25713770Y-42054009D01*
X25713771Y-42054007D01*
X25826054Y-41885963D01*
X25968963Y-41743054D01*
X26137007Y-41630771D01*
X26137009Y-41630770D01*
X26323728Y-41553428D01*
X26521947Y-41514000D01*
X26724053Y-41514000D01*
X26922272Y-41553428D01*
G37*
G36*
X56306272Y-41553428D02*
G01*
X56492991Y-41630770D01*
X56492993Y-41630771D01*
X56661037Y-41743054D01*
X56803946Y-41885963D01*
X56916229Y-42054007D01*
X56916230Y-42054009D01*
X56993572Y-42240728D01*
X57033000Y-42438947D01*
X57033000Y-42641053D01*
X56993572Y-42839272D01*
X56916230Y-43025991D01*
X56916229Y-43025993D01*
X56803946Y-43194037D01*
X56661037Y-43336946D01*
X56492993Y-43449229D01*
X56492992Y-43449230D01*
X56492991Y-43449230D01*
X56306272Y-43526572D01*
X56108053Y-43566000D01*
X55905947Y-43566000D01*
X55707728Y-43526572D01*
X55521009Y-43449230D01*
X55521008Y-43449230D01*
X55521007Y-43449229D01*
X55352963Y-43336946D01*
X55210054Y-43194037D01*
X55097771Y-43025993D01*
X55097770Y-43025991D01*
X55020428Y-42839272D01*
X54981000Y-42641053D01*
X54981000Y-42438947D01*
X55020428Y-42240728D01*
X55097770Y-42054009D01*
X55097771Y-42054007D01*
X55210054Y-41885963D01*
X55352963Y-41743054D01*
X55521007Y-41630771D01*
X55521009Y-41630770D01*
X55707728Y-41553428D01*
X55905947Y-41514000D01*
X56108053Y-41514000D01*
X56306272Y-41553428D01*
G37*
G36*
X6569059Y-41060860D02*
G01*
X6705732Y-41117472D01*
X6828735Y-41199660D01*
X6933340Y-41304265D01*
X6933341Y-41304267D01*
X7015529Y-41427270D01*
X7072140Y-41563941D01*
X7101000Y-41709032D01*
X7101000Y-41856968D01*
X7095232Y-41885964D01*
X7072140Y-42002059D01*
X7015528Y-42138732D01*
X6933340Y-42261735D01*
X6828735Y-42366340D01*
X6705732Y-42448528D01*
X6705731Y-42448529D01*
X6705730Y-42448529D01*
X6569059Y-42505140D01*
X6423968Y-42534000D01*
X6276032Y-42534000D01*
X6130941Y-42505140D01*
X5994270Y-42448529D01*
X5994269Y-42448529D01*
X5994268Y-42448528D01*
X5871265Y-42366340D01*
X5766660Y-42261735D01*
X5684472Y-42138732D01*
X5627860Y-42002059D01*
X5604768Y-41885964D01*
X5599000Y-41856968D01*
X5599000Y-41709032D01*
X5627860Y-41563941D01*
X5684471Y-41427270D01*
X5766659Y-41304267D01*
X5766660Y-41304265D01*
X5871265Y-41199660D01*
X5994268Y-41117472D01*
X6130941Y-41060860D01*
X6276032Y-41032000D01*
X6423968Y-41032000D01*
X6569059Y-41060860D01*
G37*
G36*
X6569059Y-36060860D02*
G01*
X6705732Y-36117472D01*
X6828735Y-36199660D01*
X6933340Y-36304265D01*
X7015528Y-36427268D01*
X7072140Y-36563941D01*
X7101000Y-36709033D01*
X7101000Y-36856967D01*
X7072140Y-37002059D01*
X7015528Y-37138732D01*
X6933340Y-37261735D01*
X6828735Y-37366340D01*
X6705732Y-37448528D01*
X6705731Y-37448529D01*
X6705730Y-37448529D01*
X6569059Y-37505140D01*
X6423968Y-37534000D01*
X6276032Y-37534000D01*
X6130941Y-37505140D01*
X5994270Y-37448529D01*
X5994269Y-37448529D01*
X5994268Y-37448528D01*
X5871265Y-37366340D01*
X5766660Y-37261735D01*
X5684472Y-37138732D01*
X5627860Y-37002059D01*
X5599000Y-36856967D01*
X5599000Y-36709033D01*
X5627860Y-36563941D01*
X5684472Y-36427268D01*
X5766660Y-36304265D01*
X5871265Y-36199660D01*
X5994268Y-36117472D01*
X6130941Y-36060860D01*
X6276032Y-36032000D01*
X6423968Y-36032000D01*
X6569059Y-36060860D01*
G37*
G36*
X57416778Y-35061547D02*
G01*
X57583224Y-35130491D01*
X57733022Y-35230583D01*
X57860417Y-35357978D01*
X57960509Y-35507776D01*
X58029453Y-35674222D01*
X58064600Y-35850918D01*
X58064600Y-36031082D01*
X58029453Y-36207778D01*
X57960509Y-36374224D01*
X57860417Y-36524022D01*
X57733022Y-36651417D01*
X57583224Y-36751509D01*
X57416778Y-36820453D01*
X57240082Y-36855600D01*
X57059918Y-36855600D01*
X56883222Y-36820453D01*
X56716776Y-36751509D01*
X56566978Y-36651417D01*
X56439583Y-36524022D01*
X56339491Y-36374224D01*
X56270547Y-36207778D01*
X56235400Y-36031082D01*
X56235400Y-35850918D01*
X56270547Y-35674222D01*
X56339491Y-35507776D01*
X56439583Y-35357978D01*
X56566978Y-35230583D01*
X56716776Y-35130491D01*
X56883222Y-35061547D01*
X57059918Y-35026400D01*
X57240082Y-35026400D01*
X57416778Y-35061547D01*
G37*
G36*
X54876778Y-35061547D02*
G01*
X55043224Y-35130491D01*
X55193022Y-35230583D01*
X55320417Y-35357978D01*
X55420509Y-35507776D01*
X55489453Y-35674222D01*
X55524600Y-35850918D01*
X55524600Y-36031082D01*
X55489453Y-36207778D01*
X55420509Y-36374224D01*
X55320417Y-36524022D01*
X55193022Y-36651417D01*
X55043224Y-36751509D01*
X54876778Y-36820453D01*
X54700082Y-36855600D01*
X54519918Y-36855600D01*
X54343222Y-36820453D01*
X54176776Y-36751509D01*
X54026978Y-36651417D01*
X53899583Y-36524022D01*
X53799491Y-36374224D01*
X53730547Y-36207778D01*
X53695400Y-36031082D01*
X53695400Y-35850918D01*
X53730547Y-35674222D01*
X53799491Y-35507776D01*
X53899583Y-35357978D01*
X54026978Y-35230583D01*
X54176776Y-35130491D01*
X54343222Y-35061547D01*
X54519918Y-35026400D01*
X54700082Y-35026400D01*
X54876778Y-35061547D01*
G37*
G36*
X6569059Y-33560860D02*
G01*
X6705732Y-33617472D01*
X6828735Y-33699660D01*
X6933340Y-33804265D01*
X7015528Y-33927268D01*
X7072140Y-34063941D01*
X7101000Y-34209033D01*
X7101000Y-34356967D01*
X7072140Y-34502059D01*
X7015528Y-34638732D01*
X6933340Y-34761735D01*
X6828735Y-34866340D01*
X6705732Y-34948528D01*
X6705731Y-34948529D01*
X6705730Y-34948529D01*
X6569059Y-35005140D01*
X6423968Y-35034000D01*
X6276032Y-35034000D01*
X6130941Y-35005140D01*
X5994270Y-34948529D01*
X5994269Y-34948529D01*
X5994268Y-34948528D01*
X5871265Y-34866340D01*
X5766660Y-34761735D01*
X5684472Y-34638732D01*
X5627860Y-34502059D01*
X5599000Y-34356967D01*
X5599000Y-34209033D01*
X5627860Y-34063941D01*
X5684472Y-33927268D01*
X5766660Y-33804265D01*
X5871265Y-33699660D01*
X5994268Y-33617472D01*
X6130941Y-33560860D01*
X6276032Y-33532000D01*
X6423968Y-33532000D01*
X6569059Y-33560860D01*
G37*
G36*
X54876778Y-32521547D02*
G01*
X55043224Y-32590491D01*
X55193022Y-32690583D01*
X55320417Y-32817978D01*
X55420509Y-32967776D01*
X55489453Y-33134222D01*
X55524600Y-33310918D01*
X55524600Y-33491082D01*
X55489453Y-33667778D01*
X55420509Y-33834224D01*
X55320417Y-33984022D01*
X55193022Y-34111417D01*
X55043224Y-34211509D01*
X54876778Y-34280453D01*
X54700082Y-34315600D01*
X54519918Y-34315600D01*
X54343222Y-34280453D01*
X54176776Y-34211509D01*
X54026978Y-34111417D01*
X53899583Y-33984022D01*
X53799491Y-33834224D01*
X53730547Y-33667778D01*
X53695400Y-33491082D01*
X53695400Y-33310918D01*
X53730547Y-33134222D01*
X53799491Y-32967776D01*
X53899583Y-32817978D01*
X54026978Y-32690583D01*
X54176776Y-32590491D01*
X54343222Y-32521547D01*
X54519918Y-32486400D01*
X54700082Y-32486400D01*
X54876778Y-32521547D01*
G37*
G36*
X57416778Y-32521547D02*
G01*
X57583224Y-32590491D01*
X57733022Y-32690583D01*
X57860417Y-32817978D01*
X57960509Y-32967776D01*
X58029453Y-33134222D01*
X58064600Y-33310918D01*
X58064600Y-33491082D01*
X58029453Y-33667778D01*
X57960509Y-33834224D01*
X57860417Y-33984022D01*
X57733022Y-34111417D01*
X57583224Y-34211509D01*
X57416778Y-34280453D01*
X57240082Y-34315600D01*
X57059918Y-34315600D01*
X56883222Y-34280453D01*
X56716776Y-34211509D01*
X56566978Y-34111417D01*
X56439583Y-33984022D01*
X56339491Y-33834224D01*
X56270547Y-33667778D01*
X56235400Y-33491082D01*
X56235400Y-33310918D01*
X56270547Y-33134222D01*
X56339491Y-32967776D01*
X56439583Y-32817978D01*
X56566978Y-32690583D01*
X56716776Y-32590491D01*
X56883222Y-32521547D01*
X57059918Y-32486400D01*
X57240082Y-32486400D01*
X57416778Y-32521547D01*
G37*
G36*
X6569059Y-31060860D02*
G01*
X6705732Y-31117472D01*
X6828735Y-31199660D01*
X6933340Y-31304265D01*
X7015528Y-31427268D01*
X7072140Y-31563941D01*
X7101000Y-31709033D01*
X7101000Y-31856967D01*
X7072140Y-32002059D01*
X7015528Y-32138732D01*
X6933340Y-32261735D01*
X6828735Y-32366340D01*
X6705732Y-32448528D01*
X6705731Y-32448529D01*
X6705730Y-32448529D01*
X6569059Y-32505140D01*
X6423968Y-32534000D01*
X6276032Y-32534000D01*
X6130941Y-32505140D01*
X5994270Y-32448529D01*
X5994269Y-32448529D01*
X5994268Y-32448528D01*
X5871265Y-32366340D01*
X5766660Y-32261735D01*
X5684472Y-32138732D01*
X5627860Y-32002059D01*
X5599000Y-31856967D01*
X5599000Y-31709033D01*
X5627860Y-31563941D01*
X5684472Y-31427268D01*
X5766660Y-31304265D01*
X5871265Y-31199660D01*
X5994268Y-31117472D01*
X6130941Y-31060860D01*
X6276032Y-31032000D01*
X6423968Y-31032000D01*
X6569059Y-31060860D01*
G37*
G36*
X58064600Y-31775600D02*
G01*
X56235400Y-31775600D01*
X56235400Y-29946400D01*
X58064600Y-29946400D01*
X58064600Y-31775600D01*
G37*
G36*
X54876778Y-29981547D02*
G01*
X55043224Y-30050491D01*
X55193022Y-30150583D01*
X55320417Y-30277978D01*
X55420509Y-30427776D01*
X55489453Y-30594222D01*
X55524600Y-30770918D01*
X55524600Y-30951082D01*
X55489453Y-31127778D01*
X55420509Y-31294224D01*
X55320417Y-31444022D01*
X55193022Y-31571417D01*
X55043224Y-31671509D01*
X54876778Y-31740453D01*
X54700082Y-31775600D01*
X54519918Y-31775600D01*
X54343222Y-31740453D01*
X54176776Y-31671509D01*
X54026978Y-31571417D01*
X53899583Y-31444022D01*
X53799491Y-31294224D01*
X53730547Y-31127778D01*
X53695400Y-30951082D01*
X53695400Y-30770918D01*
X53730547Y-30594222D01*
X53799491Y-30427776D01*
X53899583Y-30277978D01*
X54026978Y-30150583D01*
X54176776Y-30050491D01*
X54343222Y-29981547D01*
X54519918Y-29946400D01*
X54700082Y-29946400D01*
X54876778Y-29981547D01*
G37*
G36*
X3764794Y-27603155D02*
G01*
X3871150Y-27624311D01*
X3971334Y-27665809D01*
X4071520Y-27707307D01*
X4251844Y-27827795D01*
X4405205Y-27981156D01*
X4525693Y-28161480D01*
X4608689Y-28361851D01*
X4651000Y-28574560D01*
X4651000Y-28791440D01*
X4608689Y-29004149D01*
X4525693Y-29204520D01*
X4405205Y-29384844D01*
X4251844Y-29538205D01*
X4071520Y-29658693D01*
X3971334Y-29700191D01*
X3871150Y-29741689D01*
X3764794Y-29762845D01*
X3658440Y-29784000D01*
X3441560Y-29784000D01*
X3335206Y-29762845D01*
X3228850Y-29741689D01*
X3128666Y-29700191D01*
X3028480Y-29658693D01*
X2848156Y-29538205D01*
X2694795Y-29384844D01*
X2574307Y-29204520D01*
X2491311Y-29004149D01*
X2449000Y-28791440D01*
X2449000Y-28574560D01*
X2491311Y-28361851D01*
X2574307Y-28161480D01*
X2694795Y-27981156D01*
X2848156Y-27827795D01*
X3028480Y-27707307D01*
X3228850Y-27624311D01*
X3335206Y-27603155D01*
X3441560Y-27582000D01*
X3658440Y-27582000D01*
X3764794Y-27603155D01*
G37*
G36*
X6452890Y-24353017D02*
G01*
X6571364Y-24402091D01*
X6677988Y-24473335D01*
X6768665Y-24564012D01*
X6839909Y-24670636D01*
X6888983Y-24789110D01*
X6914000Y-24914882D01*
X6914000Y-25043118D01*
X6888983Y-25168890D01*
X6839909Y-25287364D01*
X6768665Y-25393988D01*
X6677988Y-25484665D01*
X6571364Y-25555909D01*
X6571363Y-25555910D01*
X6571362Y-25555910D01*
X6452890Y-25604983D01*
X6327119Y-25630000D01*
X6198881Y-25630000D01*
X6073110Y-25604983D01*
X5954638Y-25555910D01*
X5954637Y-25555910D01*
X5954636Y-25555909D01*
X5848012Y-25484665D01*
X5757335Y-25393988D01*
X5686091Y-25287364D01*
X5637017Y-25168890D01*
X5612000Y-25043118D01*
X5612000Y-24914882D01*
X5637017Y-24789110D01*
X5686091Y-24670636D01*
X5757335Y-24564012D01*
X5848012Y-24473335D01*
X5954636Y-24402091D01*
X6073110Y-24353017D01*
X6198881Y-24328000D01*
X6327119Y-24328000D01*
X6452890Y-24353017D01*
G37*
G36*
X9514000Y-23230000D02*
G01*
X8012000Y-23230000D01*
X8012000Y-21728000D01*
X9514000Y-21728000D01*
X9514000Y-23230000D01*
G37*
G36*
X3982059Y-21756860D02*
G01*
X4118732Y-21813472D01*
X4241735Y-21895660D01*
X4346340Y-22000265D01*
X4428528Y-22123268D01*
X4485140Y-22259941D01*
X4514000Y-22405033D01*
X4514000Y-22552967D01*
X4485140Y-22698059D01*
X4428528Y-22834732D01*
X4346340Y-22957735D01*
X4241735Y-23062340D01*
X4118732Y-23144528D01*
X4118731Y-23144529D01*
X4118730Y-23144529D01*
X3982059Y-23201140D01*
X3836968Y-23230000D01*
X3689032Y-23230000D01*
X3543941Y-23201140D01*
X3407270Y-23144529D01*
X3407269Y-23144529D01*
X3407268Y-23144528D01*
X3284265Y-23062340D01*
X3179660Y-22957735D01*
X3097472Y-22834732D01*
X3040860Y-22698059D01*
X3012000Y-22552967D01*
X3012000Y-22405033D01*
X3040860Y-22259941D01*
X3097472Y-22123268D01*
X3179660Y-22000265D01*
X3284265Y-21895660D01*
X3407268Y-21813472D01*
X3543941Y-21756860D01*
X3689032Y-21728000D01*
X3836968Y-21728000D01*
X3982059Y-21756860D01*
G37*
G36*
X8982059Y-19256860D02*
G01*
X9118732Y-19313472D01*
X9241735Y-19395660D01*
X9346340Y-19500265D01*
X9428528Y-19623268D01*
X9485140Y-19759941D01*
X9514000Y-19905033D01*
X9514000Y-20052967D01*
X9485140Y-20198059D01*
X9428528Y-20334732D01*
X9346340Y-20457735D01*
X9241735Y-20562340D01*
X9118732Y-20644528D01*
X9118731Y-20644529D01*
X9118730Y-20644529D01*
X8982059Y-20701140D01*
X8836968Y-20730000D01*
X8689032Y-20730000D01*
X8543941Y-20701140D01*
X8407270Y-20644529D01*
X8407269Y-20644529D01*
X8407268Y-20644528D01*
X8284265Y-20562340D01*
X8179660Y-20457735D01*
X8097472Y-20334732D01*
X8040860Y-20198059D01*
X8012000Y-20052967D01*
X8012000Y-19905033D01*
X8040860Y-19759941D01*
X8097472Y-19623268D01*
X8179660Y-19500265D01*
X8284265Y-19395660D01*
X8407268Y-19313472D01*
X8543941Y-19256860D01*
X8689032Y-19228000D01*
X8836968Y-19228000D01*
X8982059Y-19256860D01*
G37*
G36*
X3982059Y-19256860D02*
G01*
X4118732Y-19313472D01*
X4241735Y-19395660D01*
X4346340Y-19500265D01*
X4428528Y-19623268D01*
X4485140Y-19759941D01*
X4514000Y-19905033D01*
X4514000Y-20052967D01*
X4485140Y-20198059D01*
X4428528Y-20334732D01*
X4346340Y-20457735D01*
X4241735Y-20562340D01*
X4118732Y-20644528D01*
X4118731Y-20644529D01*
X4118730Y-20644529D01*
X3982059Y-20701140D01*
X3836968Y-20730000D01*
X3689032Y-20730000D01*
X3543941Y-20701140D01*
X3407270Y-20644529D01*
X3407269Y-20644529D01*
X3407268Y-20644528D01*
X3284265Y-20562340D01*
X3179660Y-20457735D01*
X3097472Y-20334732D01*
X3040860Y-20198059D01*
X3012000Y-20052967D01*
X3012000Y-19905033D01*
X3040860Y-19759941D01*
X3097472Y-19623268D01*
X3179660Y-19500265D01*
X3284265Y-19395660D01*
X3407268Y-19313472D01*
X3543941Y-19256860D01*
X3689032Y-19228000D01*
X3836968Y-19228000D01*
X3982059Y-19256860D01*
G37*
G36*
X8982059Y-16756860D02*
G01*
X9118732Y-16813472D01*
X9241735Y-16895660D01*
X9346340Y-17000265D01*
X9428528Y-17123268D01*
X9485140Y-17259941D01*
X9514000Y-17405033D01*
X9514000Y-17552967D01*
X9485140Y-17698059D01*
X9428528Y-17834732D01*
X9346340Y-17957735D01*
X9241735Y-18062340D01*
X9118732Y-18144528D01*
X9118731Y-18144529D01*
X9118730Y-18144529D01*
X8982059Y-18201140D01*
X8836968Y-18230000D01*
X8689032Y-18230000D01*
X8543941Y-18201140D01*
X8407270Y-18144529D01*
X8407269Y-18144529D01*
X8407268Y-18144528D01*
X8284265Y-18062340D01*
X8179660Y-17957735D01*
X8097472Y-17834732D01*
X8040860Y-17698059D01*
X8012000Y-17552967D01*
X8012000Y-17405033D01*
X8040860Y-17259941D01*
X8097472Y-17123268D01*
X8179660Y-17000265D01*
X8284265Y-16895660D01*
X8407268Y-16813472D01*
X8543941Y-16756860D01*
X8689032Y-16728000D01*
X8836968Y-16728000D01*
X8982059Y-16756860D01*
G37*
G36*
X3982059Y-16756860D02*
G01*
X4118732Y-16813472D01*
X4241735Y-16895660D01*
X4346340Y-17000265D01*
X4428528Y-17123268D01*
X4485140Y-17259941D01*
X4514000Y-17405033D01*
X4514000Y-17552967D01*
X4485140Y-17698059D01*
X4428528Y-17834732D01*
X4346340Y-17957735D01*
X4241735Y-18062340D01*
X4118732Y-18144528D01*
X4118731Y-18144529D01*
X4118730Y-18144529D01*
X3982059Y-18201140D01*
X3836968Y-18230000D01*
X3689032Y-18230000D01*
X3543941Y-18201140D01*
X3407270Y-18144529D01*
X3407269Y-18144529D01*
X3407268Y-18144528D01*
X3284265Y-18062340D01*
X3179660Y-17957735D01*
X3097472Y-17834732D01*
X3040860Y-17698059D01*
X3012000Y-17552967D01*
X3012000Y-17405033D01*
X3040860Y-17259941D01*
X3097472Y-17123268D01*
X3179660Y-17000265D01*
X3284265Y-16895660D01*
X3407268Y-16813472D01*
X3543941Y-16756860D01*
X3689032Y-16728000D01*
X3836968Y-16728000D01*
X3982059Y-16756860D01*
G37*
G36*
X6452890Y-14353017D02*
G01*
X6571364Y-14402091D01*
X6677988Y-14473335D01*
X6768665Y-14564012D01*
X6839909Y-14670636D01*
X6888983Y-14789110D01*
X6914000Y-14914882D01*
X6914000Y-15043118D01*
X6888983Y-15168890D01*
X6839909Y-15287364D01*
X6768665Y-15393988D01*
X6677988Y-15484665D01*
X6571364Y-15555909D01*
X6571363Y-15555910D01*
X6571362Y-15555910D01*
X6452890Y-15604983D01*
X6327119Y-15630000D01*
X6198881Y-15630000D01*
X6073110Y-15604983D01*
X5954638Y-15555910D01*
X5954637Y-15555910D01*
X5954636Y-15555909D01*
X5848012Y-15484665D01*
X5757335Y-15393988D01*
X5686091Y-15287364D01*
X5637017Y-15168890D01*
X5612000Y-15043118D01*
X5612000Y-14914882D01*
X5637017Y-14789110D01*
X5686091Y-14670636D01*
X5757335Y-14564012D01*
X5848012Y-14473335D01*
X5954636Y-14402091D01*
X6073110Y-14353017D01*
X6198881Y-14328000D01*
X6327119Y-14328000D01*
X6452890Y-14353017D01*
G37*
G36*
X4214395Y-10134546D02*
G01*
X4387466Y-10206234D01*
X4387467Y-10206235D01*
X4543227Y-10310310D01*
X4675690Y-10442773D01*
X4675691Y-10442775D01*
X4779766Y-10598534D01*
X4851454Y-10771605D01*
X4888000Y-10955333D01*
X4888000Y-11142667D01*
X4851454Y-11326395D01*
X4779766Y-11499466D01*
X4779765Y-11499467D01*
X4675690Y-11655227D01*
X4543227Y-11787690D01*
X4464818Y-11840081D01*
X4387466Y-11891766D01*
X4214395Y-11963454D01*
X4030667Y-12000000D01*
X3843333Y-12000000D01*
X3659605Y-11963454D01*
X3486534Y-11891766D01*
X3409182Y-11840081D01*
X3330773Y-11787690D01*
X3198310Y-11655227D01*
X3094235Y-11499467D01*
X3094234Y-11499466D01*
X3022546Y-11326395D01*
X2986000Y-11142667D01*
X2986000Y-10955333D01*
X3022546Y-10771605D01*
X3094234Y-10598534D01*
X3198309Y-10442775D01*
X3198310Y-10442773D01*
X3330773Y-10310310D01*
X3486533Y-10206235D01*
X3486534Y-10206234D01*
X3659605Y-10134546D01*
X3843333Y-10098000D01*
X4030667Y-10098000D01*
X4214395Y-10134546D01*
G37*
G36*
X2348000Y-12000000D02*
G01*
X446000Y-12000000D01*
X446000Y-10098000D01*
X2348000Y-10098000D01*
X2348000Y-12000000D01*
G37*
G36*
X8927473Y-6343938D02*
G01*
X9055049Y-6396782D01*
X9169859Y-6473495D01*
X9267505Y-6571141D01*
X9344218Y-6685951D01*
X9397062Y-6813527D01*
X9424000Y-6948956D01*
X9424000Y-7087044D01*
X9397062Y-7222473D01*
X9344218Y-7350049D01*
X9267505Y-7464859D01*
X9169859Y-7562505D01*
X9055049Y-7639218D01*
X8927473Y-7692062D01*
X8792044Y-7719000D01*
X8653956Y-7719000D01*
X8518527Y-7692062D01*
X8390951Y-7639218D01*
X8276141Y-7562505D01*
X8178495Y-7464859D01*
X8101782Y-7350049D01*
X8048938Y-7222473D01*
X8022000Y-7087044D01*
X8022000Y-6948956D01*
X8048938Y-6813527D01*
X8101782Y-6685951D01*
X8178495Y-6571141D01*
X8276141Y-6473495D01*
X8390951Y-6396782D01*
X8518527Y-6343938D01*
X8653956Y-6317000D01*
X8792044Y-6317000D01*
X8927473Y-6343938D01*
G37*
G36*
X6427473Y-6343938D02*
G01*
X6555049Y-6396782D01*
X6669859Y-6473495D01*
X6767505Y-6571141D01*
X6844218Y-6685951D01*
X6897062Y-6813527D01*
X6924000Y-6948956D01*
X6924000Y-7087044D01*
X6897062Y-7222473D01*
X6844218Y-7350049D01*
X6767505Y-7464859D01*
X6669859Y-7562505D01*
X6555049Y-7639218D01*
X6427473Y-7692062D01*
X6292044Y-7719000D01*
X6153956Y-7719000D01*
X6018527Y-7692062D01*
X5890951Y-7639218D01*
X5776141Y-7562505D01*
X5678495Y-7464859D01*
X5601782Y-7350049D01*
X5548938Y-7222473D01*
X5522000Y-7087044D01*
X5522000Y-6948956D01*
X5548938Y-6813527D01*
X5601782Y-6685951D01*
X5678495Y-6571141D01*
X5776141Y-6473495D01*
X5890951Y-6396782D01*
X6018527Y-6343938D01*
X6153956Y-6317000D01*
X6292044Y-6317000D01*
X6427473Y-6343938D01*
G37*
G36*
X3927473Y-6343938D02*
G01*
X4055049Y-6396782D01*
X4169859Y-6473495D01*
X4267505Y-6571141D01*
X4344218Y-6685951D01*
X4397062Y-6813527D01*
X4424000Y-6948956D01*
X4424000Y-7087044D01*
X4397062Y-7222473D01*
X4344218Y-7350049D01*
X4267505Y-7464859D01*
X4169859Y-7562505D01*
X4055049Y-7639218D01*
X3927473Y-7692062D01*
X3792044Y-7719000D01*
X3653956Y-7719000D01*
X3518527Y-7692062D01*
X3390951Y-7639218D01*
X3276141Y-7562505D01*
X3178495Y-7464859D01*
X3101782Y-7350049D01*
X3048938Y-7222473D01*
X3022000Y-7087044D01*
X3022000Y-6948956D01*
X3048938Y-6813527D01*
X3101782Y-6685951D01*
X3178495Y-6571141D01*
X3276141Y-6473495D01*
X3390951Y-6396782D01*
X3518527Y-6343938D01*
X3653956Y-6317000D01*
X3792044Y-6317000D01*
X3927473Y-6343938D01*
G37*
G36*
X51306272Y-1553428D02*
G01*
X51492991Y-1630770D01*
X51492993Y-1630771D01*
X51661037Y-1743054D01*
X51803946Y-1885963D01*
X51916229Y-2054007D01*
X51916230Y-2054009D01*
X51993572Y-2240728D01*
X52033000Y-2438947D01*
X52033000Y-2641053D01*
X51993572Y-2839272D01*
X51916230Y-3025991D01*
X51916229Y-3025993D01*
X51803946Y-3194037D01*
X51661037Y-3336946D01*
X51492993Y-3449229D01*
X51492992Y-3449230D01*
X51492991Y-3449230D01*
X51306272Y-3526572D01*
X51108053Y-3566000D01*
X50905947Y-3566000D01*
X50707728Y-3526572D01*
X50521009Y-3449230D01*
X50521008Y-3449230D01*
X50521007Y-3449229D01*
X50352963Y-3336946D01*
X50210054Y-3194037D01*
X50097771Y-3025993D01*
X50097770Y-3025991D01*
X50020428Y-2839272D01*
X49981000Y-2641053D01*
X49981000Y-2438947D01*
X50020428Y-2240728D01*
X50097770Y-2054009D01*
X50097771Y-2054007D01*
X50210054Y-1885963D01*
X50352963Y-1743054D01*
X50521007Y-1630771D01*
X50521009Y-1630770D01*
X50707728Y-1553428D01*
X50905947Y-1514000D01*
X51108053Y-1514000D01*
X51306272Y-1553428D01*
G37*
G36*
X17230272Y-1553428D02*
G01*
X17416991Y-1630770D01*
X17416993Y-1630771D01*
X17585037Y-1743054D01*
X17727946Y-1885963D01*
X17840229Y-2054007D01*
X17840230Y-2054009D01*
X17917572Y-2240728D01*
X17957000Y-2438947D01*
X17957000Y-2641053D01*
X17917572Y-2839272D01*
X17840230Y-3025991D01*
X17840229Y-3025993D01*
X17727946Y-3194037D01*
X17585037Y-3336946D01*
X17416993Y-3449229D01*
X17416992Y-3449230D01*
X17416991Y-3449230D01*
X17230272Y-3526572D01*
X17032053Y-3566000D01*
X16829947Y-3566000D01*
X16631728Y-3526572D01*
X16445009Y-3449230D01*
X16445008Y-3449230D01*
X16445007Y-3449229D01*
X16276963Y-3336946D01*
X16134054Y-3194037D01*
X16021771Y-3025993D01*
X16021770Y-3025991D01*
X15944428Y-2839272D01*
X15905000Y-2641053D01*
X15905000Y-2438947D01*
X15944428Y-2240728D01*
X16021770Y-2054009D01*
X16021771Y-2054007D01*
X16134054Y-1885963D01*
X16276963Y-1743054D01*
X16445007Y-1630771D01*
X16445009Y-1630770D01*
X16631728Y-1553428D01*
X16829947Y-1514000D01*
X17032053Y-1514000D01*
X17230272Y-1553428D01*
G37*
G36*
X58806272Y-1553428D02*
G01*
X58992991Y-1630770D01*
X58992993Y-1630771D01*
X59161037Y-1743054D01*
X59303946Y-1885963D01*
X59416229Y-2054007D01*
X59416230Y-2054009D01*
X59493572Y-2240728D01*
X59533000Y-2438947D01*
X59533000Y-2641053D01*
X59493572Y-2839272D01*
X59416230Y-3025991D01*
X59416229Y-3025993D01*
X59303946Y-3194037D01*
X59161037Y-3336946D01*
X58992993Y-3449229D01*
X58992992Y-3449230D01*
X58992991Y-3449230D01*
X58806272Y-3526572D01*
X58608053Y-3566000D01*
X58405947Y-3566000D01*
X58207728Y-3526572D01*
X58021009Y-3449230D01*
X58021008Y-3449230D01*
X58021007Y-3449229D01*
X57852963Y-3336946D01*
X57710054Y-3194037D01*
X57597771Y-3025993D01*
X57597770Y-3025991D01*
X57520428Y-2839272D01*
X57481000Y-2641053D01*
X57481000Y-2438947D01*
X57520428Y-2240728D01*
X57597770Y-2054009D01*
X57597771Y-2054007D01*
X57710054Y-1885963D01*
X57852963Y-1743054D01*
X58021007Y-1630771D01*
X58021009Y-1630770D01*
X58207728Y-1553428D01*
X58405947Y-1514000D01*
X58608053Y-1514000D01*
X58806272Y-1553428D01*
G37*
G36*
X56306272Y-1553428D02*
G01*
X56492991Y-1630770D01*
X56492993Y-1630771D01*
X56661037Y-1743054D01*
X56803946Y-1885963D01*
X56916229Y-2054007D01*
X56916230Y-2054009D01*
X56993572Y-2240728D01*
X57033000Y-2438947D01*
X57033000Y-2641053D01*
X56993572Y-2839272D01*
X56916230Y-3025991D01*
X56916229Y-3025993D01*
X56803946Y-3194037D01*
X56661037Y-3336946D01*
X56492993Y-3449229D01*
X56492992Y-3449230D01*
X56492991Y-3449230D01*
X56306272Y-3526572D01*
X56108053Y-3566000D01*
X55905947Y-3566000D01*
X55707728Y-3526572D01*
X55521009Y-3449230D01*
X55521008Y-3449230D01*
X55521007Y-3449229D01*
X55352963Y-3336946D01*
X55210054Y-3194037D01*
X55097771Y-3025993D01*
X55097770Y-3025991D01*
X55020428Y-2839272D01*
X54981000Y-2641053D01*
X54981000Y-2438947D01*
X55020428Y-2240728D01*
X55097770Y-2054009D01*
X55097771Y-2054007D01*
X55210054Y-1885963D01*
X55352963Y-1743054D01*
X55521007Y-1630771D01*
X55521009Y-1630770D01*
X55707728Y-1553428D01*
X55905947Y-1514000D01*
X56108053Y-1514000D01*
X56306272Y-1553428D01*
G37*
G36*
X14730272Y-1553428D02*
G01*
X14916991Y-1630770D01*
X14916993Y-1630771D01*
X15085037Y-1743054D01*
X15227946Y-1885963D01*
X15340229Y-2054007D01*
X15340230Y-2054009D01*
X15417572Y-2240728D01*
X15457000Y-2438947D01*
X15457000Y-2641053D01*
X15417572Y-2839272D01*
X15340230Y-3025991D01*
X15340229Y-3025993D01*
X15227946Y-3194037D01*
X15085037Y-3336946D01*
X14916993Y-3449229D01*
X14916992Y-3449230D01*
X14916991Y-3449230D01*
X14730272Y-3526572D01*
X14532053Y-3566000D01*
X14329947Y-3566000D01*
X14131728Y-3526572D01*
X13945009Y-3449230D01*
X13945008Y-3449230D01*
X13945007Y-3449229D01*
X13776963Y-3336946D01*
X13634054Y-3194037D01*
X13521771Y-3025993D01*
X13521770Y-3025991D01*
X13444428Y-2839272D01*
X13405000Y-2641053D01*
X13405000Y-2438947D01*
X13444428Y-2240728D01*
X13521770Y-2054009D01*
X13521771Y-2054007D01*
X13634054Y-1885963D01*
X13776963Y-1743054D01*
X13945007Y-1630771D01*
X13945009Y-1630770D01*
X14131728Y-1553428D01*
X14329947Y-1514000D01*
X14532053Y-1514000D01*
X14730272Y-1553428D01*
G37*
G36*
X34422272Y-1553428D02*
G01*
X34608991Y-1630770D01*
X34608993Y-1630771D01*
X34777037Y-1743054D01*
X34919946Y-1885963D01*
X35032229Y-2054007D01*
X35032230Y-2054009D01*
X35109572Y-2240728D01*
X35149000Y-2438947D01*
X35149000Y-2641053D01*
X35109572Y-2839272D01*
X35032230Y-3025991D01*
X35032229Y-3025993D01*
X34919946Y-3194037D01*
X34777037Y-3336946D01*
X34608993Y-3449229D01*
X34608992Y-3449230D01*
X34608991Y-3449230D01*
X34422272Y-3526572D01*
X34224053Y-3566000D01*
X34021947Y-3566000D01*
X33823728Y-3526572D01*
X33637009Y-3449230D01*
X33637008Y-3449230D01*
X33637007Y-3449229D01*
X33468963Y-3336946D01*
X33326054Y-3194037D01*
X33213771Y-3025993D01*
X33213770Y-3025991D01*
X33136428Y-2839272D01*
X33097000Y-2641053D01*
X33097000Y-2438947D01*
X33136428Y-2240728D01*
X33213770Y-2054009D01*
X33213771Y-2054007D01*
X33326054Y-1885963D01*
X33468963Y-1743054D01*
X33637007Y-1630771D01*
X33637009Y-1630770D01*
X33823728Y-1553428D01*
X34021947Y-1514000D01*
X34224053Y-1514000D01*
X34422272Y-1553428D01*
G37*
G36*
X19730272Y-1553428D02*
G01*
X19916991Y-1630770D01*
X19916993Y-1630771D01*
X20085037Y-1743054D01*
X20227946Y-1885963D01*
X20340229Y-2054007D01*
X20340230Y-2054009D01*
X20417572Y-2240728D01*
X20457000Y-2438947D01*
X20457000Y-2641053D01*
X20417572Y-2839272D01*
X20340230Y-3025991D01*
X20340229Y-3025993D01*
X20227946Y-3194037D01*
X20085037Y-3336946D01*
X19916993Y-3449229D01*
X19916992Y-3449230D01*
X19916991Y-3449230D01*
X19730272Y-3526572D01*
X19532053Y-3566000D01*
X19329947Y-3566000D01*
X19131728Y-3526572D01*
X18945009Y-3449230D01*
X18945008Y-3449230D01*
X18945007Y-3449229D01*
X18776963Y-3336946D01*
X18634054Y-3194037D01*
X18521771Y-3025993D01*
X18521770Y-3025991D01*
X18444428Y-2839272D01*
X18405000Y-2641053D01*
X18405000Y-2438947D01*
X18444428Y-2240728D01*
X18521770Y-2054009D01*
X18521771Y-2054007D01*
X18634054Y-1885963D01*
X18776963Y-1743054D01*
X18945007Y-1630771D01*
X18945009Y-1630770D01*
X19131728Y-1553428D01*
X19329947Y-1514000D01*
X19532053Y-1514000D01*
X19730272Y-1553428D01*
G37*
G36*
X22230272Y-1553428D02*
G01*
X22416991Y-1630770D01*
X22416993Y-1630771D01*
X22585037Y-1743054D01*
X22727946Y-1885963D01*
X22840229Y-2054007D01*
X22840230Y-2054009D01*
X22917572Y-2240728D01*
X22957000Y-2438947D01*
X22957000Y-2641053D01*
X22917572Y-2839272D01*
X22840230Y-3025991D01*
X22840229Y-3025993D01*
X22727946Y-3194037D01*
X22585037Y-3336946D01*
X22416993Y-3449229D01*
X22416992Y-3449230D01*
X22416991Y-3449230D01*
X22230272Y-3526572D01*
X22032053Y-3566000D01*
X21829947Y-3566000D01*
X21631728Y-3526572D01*
X21445009Y-3449230D01*
X21445008Y-3449230D01*
X21445007Y-3449229D01*
X21276963Y-3336946D01*
X21134054Y-3194037D01*
X21021771Y-3025993D01*
X21021770Y-3025991D01*
X20944428Y-2839272D01*
X20905000Y-2641053D01*
X20905000Y-2438947D01*
X20944428Y-2240728D01*
X21021770Y-2054009D01*
X21021771Y-2054007D01*
X21134054Y-1885963D01*
X21276963Y-1743054D01*
X21445007Y-1630771D01*
X21445009Y-1630770D01*
X21631728Y-1553428D01*
X21829947Y-1514000D01*
X22032053Y-1514000D01*
X22230272Y-1553428D01*
G37*
G36*
X53806272Y-1553428D02*
G01*
X53992991Y-1630770D01*
X53992993Y-1630771D01*
X54161037Y-1743054D01*
X54303946Y-1885963D01*
X54416229Y-2054007D01*
X54416230Y-2054009D01*
X54493572Y-2240728D01*
X54533000Y-2438947D01*
X54533000Y-2641053D01*
X54493572Y-2839272D01*
X54416230Y-3025991D01*
X54416229Y-3025993D01*
X54303946Y-3194037D01*
X54161037Y-3336946D01*
X53992993Y-3449229D01*
X53992992Y-3449230D01*
X53992991Y-3449230D01*
X53806272Y-3526572D01*
X53608053Y-3566000D01*
X53405947Y-3566000D01*
X53207728Y-3526572D01*
X53021009Y-3449230D01*
X53021008Y-3449230D01*
X53021007Y-3449229D01*
X52852963Y-3336946D01*
X52710054Y-3194037D01*
X52597771Y-3025993D01*
X52597770Y-3025991D01*
X52520428Y-2839272D01*
X52481000Y-2641053D01*
X52481000Y-2438947D01*
X52520428Y-2240728D01*
X52597770Y-2054009D01*
X52597771Y-2054007D01*
X52710054Y-1885963D01*
X52852963Y-1743054D01*
X53021007Y-1630771D01*
X53021009Y-1630770D01*
X53207728Y-1553428D01*
X53405947Y-1514000D01*
X53608053Y-1514000D01*
X53806272Y-1553428D01*
G37*
G36*
X29422272Y-1553428D02*
G01*
X29608991Y-1630770D01*
X29608993Y-1630771D01*
X29777037Y-1743054D01*
X29919946Y-1885963D01*
X30032229Y-2054007D01*
X30032230Y-2054009D01*
X30109572Y-2240728D01*
X30149000Y-2438947D01*
X30149000Y-2641053D01*
X30109572Y-2839272D01*
X30032230Y-3025991D01*
X30032229Y-3025993D01*
X29919946Y-3194037D01*
X29777037Y-3336946D01*
X29608993Y-3449229D01*
X29608992Y-3449230D01*
X29608991Y-3449230D01*
X29422272Y-3526572D01*
X29224053Y-3566000D01*
X29021947Y-3566000D01*
X28823728Y-3526572D01*
X28637009Y-3449230D01*
X28637008Y-3449230D01*
X28637007Y-3449229D01*
X28468963Y-3336946D01*
X28326054Y-3194037D01*
X28213771Y-3025993D01*
X28213770Y-3025991D01*
X28136428Y-2839272D01*
X28097000Y-2641053D01*
X28097000Y-2438947D01*
X28136428Y-2240728D01*
X28213770Y-2054009D01*
X28213771Y-2054007D01*
X28326054Y-1885963D01*
X28468963Y-1743054D01*
X28637007Y-1630771D01*
X28637009Y-1630770D01*
X28823728Y-1553428D01*
X29021947Y-1514000D01*
X29224053Y-1514000D01*
X29422272Y-1553428D01*
G37*
G36*
X41614272Y-1553428D02*
G01*
X41800991Y-1630770D01*
X41800993Y-1630771D01*
X41969037Y-1743054D01*
X42111946Y-1885963D01*
X42224229Y-2054007D01*
X42224230Y-2054009D01*
X42301572Y-2240728D01*
X42341000Y-2438947D01*
X42341000Y-2641053D01*
X42301572Y-2839272D01*
X42224230Y-3025991D01*
X42224229Y-3025993D01*
X42111946Y-3194037D01*
X41969037Y-3336946D01*
X41800993Y-3449229D01*
X41800992Y-3449230D01*
X41800991Y-3449230D01*
X41614272Y-3526572D01*
X41416053Y-3566000D01*
X41213947Y-3566000D01*
X41015728Y-3526572D01*
X40829009Y-3449230D01*
X40829008Y-3449230D01*
X40829007Y-3449229D01*
X40660963Y-3336946D01*
X40518054Y-3194037D01*
X40405771Y-3025993D01*
X40405770Y-3025991D01*
X40328428Y-2839272D01*
X40289000Y-2641053D01*
X40289000Y-2438947D01*
X40328428Y-2240728D01*
X40405770Y-2054009D01*
X40405771Y-2054007D01*
X40518054Y-1885963D01*
X40660963Y-1743054D01*
X40829007Y-1630771D01*
X40829009Y-1630770D01*
X41015728Y-1553428D01*
X41213947Y-1514000D01*
X41416053Y-1514000D01*
X41614272Y-1553428D01*
G37*
G36*
X39114272Y-1553428D02*
G01*
X39300991Y-1630770D01*
X39300993Y-1630771D01*
X39469037Y-1743054D01*
X39611946Y-1885963D01*
X39724229Y-2054007D01*
X39724230Y-2054009D01*
X39801572Y-2240728D01*
X39841000Y-2438947D01*
X39841000Y-2641053D01*
X39801572Y-2839272D01*
X39724230Y-3025991D01*
X39724229Y-3025993D01*
X39611946Y-3194037D01*
X39469037Y-3336946D01*
X39300993Y-3449229D01*
X39300992Y-3449230D01*
X39300991Y-3449230D01*
X39114272Y-3526572D01*
X38916053Y-3566000D01*
X38713947Y-3566000D01*
X38515728Y-3526572D01*
X38329009Y-3449230D01*
X38329008Y-3449230D01*
X38329007Y-3449229D01*
X38160963Y-3336946D01*
X38018054Y-3194037D01*
X37905771Y-3025993D01*
X37905770Y-3025991D01*
X37828428Y-2839272D01*
X37789000Y-2641053D01*
X37789000Y-2438947D01*
X37828428Y-2240728D01*
X37905770Y-2054009D01*
X37905771Y-2054007D01*
X38018054Y-1885963D01*
X38160963Y-1743054D01*
X38329007Y-1630771D01*
X38329009Y-1630770D01*
X38515728Y-1553428D01*
X38713947Y-1514000D01*
X38916053Y-1514000D01*
X39114272Y-1553428D01*
G37*
G36*
X46614272Y-1553428D02*
G01*
X46800991Y-1630770D01*
X46800993Y-1630771D01*
X46969037Y-1743054D01*
X47111946Y-1885963D01*
X47224229Y-2054007D01*
X47224230Y-2054009D01*
X47301572Y-2240728D01*
X47341000Y-2438947D01*
X47341000Y-2641053D01*
X47301572Y-2839272D01*
X47224230Y-3025991D01*
X47224229Y-3025993D01*
X47111946Y-3194037D01*
X46969037Y-3336946D01*
X46800993Y-3449229D01*
X46800992Y-3449230D01*
X46800991Y-3449230D01*
X46614272Y-3526572D01*
X46416053Y-3566000D01*
X46213947Y-3566000D01*
X46015728Y-3526572D01*
X45829009Y-3449230D01*
X45829008Y-3449230D01*
X45829007Y-3449229D01*
X45660963Y-3336946D01*
X45518054Y-3194037D01*
X45405771Y-3025993D01*
X45405770Y-3025991D01*
X45328428Y-2839272D01*
X45289000Y-2641053D01*
X45289000Y-2438947D01*
X45328428Y-2240728D01*
X45405770Y-2054009D01*
X45405771Y-2054007D01*
X45518054Y-1885963D01*
X45660963Y-1743054D01*
X45829007Y-1630771D01*
X45829009Y-1630770D01*
X46015728Y-1553428D01*
X46213947Y-1514000D01*
X46416053Y-1514000D01*
X46614272Y-1553428D01*
G37*
G36*
X31922272Y-1553428D02*
G01*
X32108991Y-1630770D01*
X32108993Y-1630771D01*
X32277037Y-1743054D01*
X32419946Y-1885963D01*
X32532229Y-2054007D01*
X32532230Y-2054009D01*
X32609572Y-2240728D01*
X32649000Y-2438947D01*
X32649000Y-2641053D01*
X32609572Y-2839272D01*
X32532230Y-3025991D01*
X32532229Y-3025993D01*
X32419946Y-3194037D01*
X32277037Y-3336946D01*
X32108993Y-3449229D01*
X32108992Y-3449230D01*
X32108991Y-3449230D01*
X31922272Y-3526572D01*
X31724053Y-3566000D01*
X31521947Y-3566000D01*
X31323728Y-3526572D01*
X31137009Y-3449230D01*
X31137008Y-3449230D01*
X31137007Y-3449229D01*
X30968963Y-3336946D01*
X30826054Y-3194037D01*
X30713771Y-3025993D01*
X30713770Y-3025991D01*
X30636428Y-2839272D01*
X30597000Y-2641053D01*
X30597000Y-2438947D01*
X30636428Y-2240728D01*
X30713770Y-2054009D01*
X30713771Y-2054007D01*
X30826054Y-1885963D01*
X30968963Y-1743054D01*
X31137007Y-1630771D01*
X31137009Y-1630770D01*
X31323728Y-1553428D01*
X31521947Y-1514000D01*
X31724053Y-1514000D01*
X31922272Y-1553428D01*
G37*
G36*
X44114272Y-1553428D02*
G01*
X44300991Y-1630770D01*
X44300993Y-1630771D01*
X44469037Y-1743054D01*
X44611946Y-1885963D01*
X44724229Y-2054007D01*
X44724230Y-2054009D01*
X44801572Y-2240728D01*
X44841000Y-2438947D01*
X44841000Y-2641053D01*
X44801572Y-2839272D01*
X44724230Y-3025991D01*
X44724229Y-3025993D01*
X44611946Y-3194037D01*
X44469037Y-3336946D01*
X44300993Y-3449229D01*
X44300992Y-3449230D01*
X44300991Y-3449230D01*
X44114272Y-3526572D01*
X43916053Y-3566000D01*
X43713947Y-3566000D01*
X43515728Y-3526572D01*
X43329009Y-3449230D01*
X43329008Y-3449230D01*
X43329007Y-3449229D01*
X43160963Y-3336946D01*
X43018054Y-3194037D01*
X42905771Y-3025993D01*
X42905770Y-3025991D01*
X42828428Y-2839272D01*
X42789000Y-2641053D01*
X42789000Y-2438947D01*
X42828428Y-2240728D01*
X42905770Y-2054009D01*
X42905771Y-2054007D01*
X43018054Y-1885963D01*
X43160963Y-1743054D01*
X43329007Y-1630771D01*
X43329009Y-1630770D01*
X43515728Y-1553428D01*
X43713947Y-1514000D01*
X43916053Y-1514000D01*
X44114272Y-1553428D01*
G37*
G36*
X26922272Y-1553428D02*
G01*
X27108991Y-1630770D01*
X27108993Y-1630771D01*
X27277037Y-1743054D01*
X27419946Y-1885963D01*
X27532229Y-2054007D01*
X27532230Y-2054009D01*
X27609572Y-2240728D01*
X27649000Y-2438947D01*
X27649000Y-2641053D01*
X27609572Y-2839272D01*
X27532230Y-3025991D01*
X27532229Y-3025993D01*
X27419946Y-3194037D01*
X27277037Y-3336946D01*
X27108993Y-3449229D01*
X27108992Y-3449230D01*
X27108991Y-3449230D01*
X26922272Y-3526572D01*
X26724053Y-3566000D01*
X26521947Y-3566000D01*
X26323728Y-3526572D01*
X26137009Y-3449230D01*
X26137008Y-3449230D01*
X26137007Y-3449229D01*
X25968963Y-3336946D01*
X25826054Y-3194037D01*
X25713771Y-3025993D01*
X25713770Y-3025991D01*
X25636428Y-2839272D01*
X25597000Y-2641053D01*
X25597000Y-2438947D01*
X25636428Y-2240728D01*
X25713770Y-2054009D01*
X25713771Y-2054007D01*
X25826054Y-1885963D01*
X25968963Y-1743054D01*
X26137007Y-1630771D01*
X26137009Y-1630770D01*
X26323728Y-1553428D01*
X26521947Y-1514000D01*
X26724053Y-1514000D01*
X26922272Y-1553428D01*
G37*
G36*
X8927473Y-943938D02*
G01*
X9055049Y-996782D01*
X9169859Y-1073495D01*
X9267505Y-1171141D01*
X9344218Y-1285951D01*
X9397062Y-1413527D01*
X9424000Y-1548956D01*
X9424000Y-1687044D01*
X9397062Y-1822473D01*
X9344218Y-1950049D01*
X9267505Y-2064859D01*
X9169859Y-2162505D01*
X9055049Y-2239218D01*
X8927473Y-2292062D01*
X8792044Y-2319000D01*
X8653956Y-2319000D01*
X8518527Y-2292062D01*
X8390951Y-2239218D01*
X8276141Y-2162505D01*
X8178495Y-2064859D01*
X8101782Y-1950049D01*
X8048938Y-1822473D01*
X8022000Y-1687044D01*
X8022000Y-1548956D01*
X8048938Y-1413527D01*
X8101782Y-1285951D01*
X8178495Y-1171141D01*
X8276141Y-1073495D01*
X8390951Y-996782D01*
X8518527Y-943938D01*
X8653956Y-917000D01*
X8792044Y-917000D01*
X8927473Y-943938D01*
G37*
G36*
X6427473Y-943938D02*
G01*
X6555049Y-996782D01*
X6669859Y-1073495D01*
X6767505Y-1171141D01*
X6844218Y-1285951D01*
X6897062Y-1413527D01*
X6924000Y-1548956D01*
X6924000Y-1687044D01*
X6897062Y-1822473D01*
X6844218Y-1950049D01*
X6767505Y-2064859D01*
X6669859Y-2162505D01*
X6555049Y-2239218D01*
X6427473Y-2292062D01*
X6292044Y-2319000D01*
X6153956Y-2319000D01*
X6018527Y-2292062D01*
X5890951Y-2239218D01*
X5776141Y-2162505D01*
X5678495Y-2064859D01*
X5601782Y-1950049D01*
X5548938Y-1822473D01*
X5522000Y-1687044D01*
X5522000Y-1548956D01*
X5548938Y-1413527D01*
X5601782Y-1285951D01*
X5678495Y-1171141D01*
X5776141Y-1073495D01*
X5890951Y-996782D01*
X6018527Y-943938D01*
X6153956Y-917000D01*
X6292044Y-917000D01*
X6427473Y-943938D01*
G37*
G36*
X3927473Y-943938D02*
G01*
X4055049Y-996782D01*
X4169859Y-1073495D01*
X4267505Y-1171141D01*
X4344218Y-1285951D01*
X4397062Y-1413527D01*
X4424000Y-1548956D01*
X4424000Y-1687044D01*
X4397062Y-1822473D01*
X4344218Y-1950049D01*
X4267505Y-2064859D01*
X4169859Y-2162505D01*
X4055049Y-2239218D01*
X3927473Y-2292062D01*
X3792044Y-2319000D01*
X3653956Y-2319000D01*
X3518527Y-2292062D01*
X3390951Y-2239218D01*
X3276141Y-2162505D01*
X3178495Y-2064859D01*
X3101782Y-1950049D01*
X3048938Y-1822473D01*
X3022000Y-1687044D01*
X3022000Y-1548956D01*
X3048938Y-1413527D01*
X3101782Y-1285951D01*
X3178495Y-1171141D01*
X3276141Y-1073495D01*
X3390951Y-996782D01*
X3518527Y-943938D01*
X3653956Y-917000D01*
X3792044Y-917000D01*
X3927473Y-943938D01*
G37*
M02*
