M48
; DRILL file {KiCad (5.1.5)-3} date 2020-04-05 4:27:14 PM
; FORMAT={-:-/ absolute / metric / decimal}
; #@! TF.CreationDate,2020-04-05T16:27:14-07:00
; #@! TF.GenerationSoftware,Kicad,Pcbnew,(5.1.5)-3
; #@! TF.FileFunction,Plated,1,2,PTH
FMAT,2
METRIC
T1C0.400
T2C0.700
T3C0.800
T4C0.900
T5C1.016
T6C1.300
T7C1.400
T8C1.630
T9C1.780
T10C1.820
%
G90
G05
T1
X11.43Y-80.772
X12.446Y-38.608
X12.7Y-69.088
X14.478Y-65.786
X14.605Y-28.067
X15.113Y-86.741
X16.002Y-57.404
X17.526Y-77.47
X18.796Y-27.33
X18.796Y-64.897
X20.32Y-85.852
X21.844Y-74.676
X22.479Y-10.922
X24.765Y-86.741
X24.892Y-38.608
X26.543Y-74.041
X28.956Y-12.827
X29.21Y-58.674
X29.464Y-78.867
X31.115Y-85.09
X32.131Y-37.465
X32.512Y-64.77
X33.528Y-64.77
X34.544Y-64.77
X35.306Y-15.494
X35.306Y-29.21
X35.306Y-30.48
X35.306Y-45.212
X35.306Y-47.498
X35.306Y-55.626
X36.322Y-45.212
X36.322Y-47.498
X36.322Y-55.626
X36.322Y-60.706
X36.516Y-23.301
X37.322Y-55.626
X37.592Y-86.614
X38.862Y-75.819
X39.116Y-20.574
X39.243Y-37.465
X39.329Y-67.269
X39.37Y-19.558
X40.132Y-55.118
X40.64Y-47.498
X42.799Y-29.707
X43.942Y-18.161
X43.942Y-20.574
X46.228Y-12.192
X47.406Y-45.212
X48.514Y-30.734
X48.641Y-18.923
X50.927Y-22.86
X52.578Y-18.161
X58.674Y-16.891
T2
X6.263Y-63.239
X6.263Y-73.239
X6.263Y-14.979
X6.263Y-24.979
T3
X3.723Y-1.618
X3.723Y-7.018
X6.223Y-1.618
X6.223Y-7.018
X8.723Y-1.618
X8.723Y-7.018
X3.723Y-49.624
X3.723Y-55.024
X6.223Y-49.624
X6.223Y-55.024
X8.723Y-49.624
X8.723Y-55.024
T4
X1.397Y-11.049
X3.937Y-11.049
X3.763Y-65.739
X3.763Y-68.239
X3.763Y-70.739
X8.763Y-65.739
X8.763Y-68.239
X8.763Y-70.739
X1.397Y-59.309
X3.937Y-59.309
X3.763Y-17.479
X3.763Y-19.979
X3.763Y-22.479
X8.763Y-17.479
X8.763Y-19.979
X8.763Y-22.479
X6.35Y-31.783
X6.35Y-34.283
X6.35Y-36.783
X6.35Y-41.783
X6.35Y-80.043
X6.35Y-82.543
X6.35Y-85.043
X6.35Y-90.043
T5
X54.61Y-30.861
X54.61Y-33.401
X54.61Y-35.941
X57.15Y-30.861
X57.15Y-33.401
X57.15Y-35.941
X54.61Y-73.787
X54.61Y-76.327
X54.61Y-78.867
X54.61Y-81.407
X54.61Y-83.947
X57.15Y-73.787
X57.15Y-76.327
X57.15Y-78.867
X57.15Y-81.407
X57.15Y-83.947
T6
X14.431Y-2.54
X14.431Y-42.54
X16.931Y-2.54
X19.431Y-2.54
X19.431Y-42.54
X21.931Y-2.54
X38.815Y-2.54
X38.815Y-42.54
X41.315Y-2.54
X43.815Y-2.54
X43.815Y-42.54
X46.315Y-2.54
X26.623Y-2.54
X26.623Y-42.54
X29.123Y-2.54
X31.623Y-2.54
X31.623Y-42.54
X34.123Y-2.54
X26.623Y-50.546
X26.623Y-90.546
X29.123Y-50.546
X31.623Y-50.546
X31.623Y-90.546
X34.123Y-50.546
X38.778Y-50.546
X38.778Y-90.546
X41.278Y-50.546
X43.778Y-50.546
X43.778Y-90.546
X46.278Y-50.546
X51.007Y-2.54
X51.007Y-42.54
X53.507Y-2.54
X56.007Y-2.54
X56.007Y-42.54
X58.507Y-2.54
X14.431Y-50.546
X14.431Y-90.546
X16.931Y-50.546
X19.431Y-50.546
X19.431Y-90.546
X21.931Y-50.546
X51.007Y-50.546
X51.007Y-90.546
X53.507Y-50.546
X56.007Y-50.546
X56.007Y-90.546
X58.507Y-50.546
T7
X3.55Y-28.683
X9.15Y-44.883
X3.55Y-76.943
X9.15Y-93.143
T8
X18.418Y-123.603
X42.534Y-123.603
X54.592Y-123.603
X18.408Y-108.602
X30.466Y-108.602
X6.35Y-108.602
X30.476Y-123.603
X42.524Y-108.602
X54.582Y-108.602
X6.36Y-123.603
T9
X54.592Y-112.203
X18.408Y-97.202
X30.466Y-97.202
X6.35Y-97.202
X30.476Y-112.203
X42.524Y-97.202
X54.582Y-97.202
X6.36Y-112.203
X18.418Y-112.203
X42.534Y-112.203
T10
X54.582Y-105.502
X6.36Y-120.503
X18.418Y-120.503
X42.534Y-120.503
X54.592Y-120.503
X18.408Y-105.502
X30.466Y-105.502
X6.35Y-105.502
X30.476Y-120.503
X42.524Y-105.502
T0
M30
